<?xml version="1.0" encoding="utf-8"?>
<!-- Generator: Adobe Illustrator 16.0.0, SVG Export Plug-In . SVG Version: 6.00 Build 0)  -->
<!DOCTYPE svg PUBLIC "-//W3C//DTD SVG 1.1//EN" "http://www.w3.org/Graphics/SVG/1.1/DTD/svg11.dtd">
<svg version="1.1" id="Capa_1" xmlns="http://www.w3.org/2000/svg" xmlns:xlink="http://www.w3.org/1999/xlink" x="0px" y="0px"
	 width="288px" height="159px" viewBox="25.14 40.445 288 159" enable-background="new 25.14 40.445 288 159" xml:space="preserve">
<g>
	<path fill="#030104" d="M53.816,54.361c0,0,48.357,17.138,114.615,17.138c66.248,0,114.606-17.138,114.606-17.138
		c8.206,21.517,15.878,47.089,18.078,74.874c-69.187-0.677-117.803,53.262-117.803,53.262l-14.882,0.146l-14.891-0.146
		c0,0-48.607-53.938-117.802-53.262C37.938,101.45,45.61,75.878,53.816,54.361z"/>
	<path fill="#030104" d="M168.449,184.922l-15.933-0.156l-0.667-0.743c-0.472-0.529-48.171-52.515-114.838-52.515
		c-0.41,0-0.828,0-1.246,0.005l-2.492,0.022l0.196-2.483c1.869-23.563,7.824-48.261,18.22-75.503l0.792-2.078l2.101,0.743
		c0.481,0.169,48.786,17.007,113.85,17.007c65.109,0,113.36-16.838,113.841-17.007l2.101-0.743l0.792,2.078
		c10.396,27.252,16.359,51.952,18.22,75.503l0.205,2.483l-2.492-0.022c-0.42-0.005-0.846-0.005-1.256-0.005
		c-66.737,0-114.356,51.985-114.837,52.515l-0.668,0.743L168.449,184.922z M154.537,180.227l13.912,0.138l13.876-0.138
		c6.178-6.467,52.657-52.684,116.315-53.271c-1.993-21.791-7.548-44.655-16.965-69.744c-10.084,3.242-55.087,16.566-113.244,16.566
		c-58.167,0-103.169-13.324-113.253-16.566c-9.408,25.08-14.971,47.944-16.956,69.744
		C101.881,127.538,148.352,173.76,154.537,180.227z"/>
</g>
</svg>
