<?xml version="1.0" encoding="utf-8"?>
<!-- Generator: Adobe Illustrator 16.0.0, SVG Export Plug-In . SVG Version: 6.00 Build 0)  -->
<!DOCTYPE svg PUBLIC "-//W3C//DTD SVG 1.1//EN" "http://www.w3.org/Graphics/SVG/1.1/DTD/svg11.dtd">
<svg version="1.1" id="Capa_1" xmlns="http://www.w3.org/2000/svg" xmlns:xlink="http://www.w3.org/1999/xlink" x="0px" y="0px"
	 width="343px" height="464px" viewBox="0 0 343 464" enable-background="new 0 0 343 464" xml:space="preserve">
<g>
	<g>
		<path fill="#030104" d="M10.309,381.705c2.475,0.425,4.911,0.945,7.317,1.551c1.47,0.371,2.904,0.825,4.349,1.26
			c0.892,0.267,1.799,0.495,2.681,0.787c1.847,0.604,3.661,1.284,5.464,1.984c0.438,0.171,0.88,0.313,1.313,0.488
			c1.886,0.754,3.738,1.574,5.574,2.418c0.327,0.149,0.661,0.283,0.984,0.438c1.313,0.691,12.827,6.771,17.036,9.498
			c0.004,0.004,0.01,0.008,0.019,0.012c30.882,20.238,50.796,49.228,53.297,52.968c0.18,0.267,0.277,0.421,0.277,0.421l12.016,0.121
			v0.004l0.444-0.004l0.444,0.004v-0.004l12.014-0.121c0,0,20.521-31.729,53.595-53.399c4.153-2.688,15.452-8.66,17.036-9.494
			c1.91-0.899,3.84-1.78,5.812-2.585c0.052-0.021,0.104-0.033,0.15-0.054c2.252-0.913,4.536-1.769,6.854-2.539
			c0.602-0.2,1.223-0.351,1.817-0.538c1.806-0.566,3.611-1.13,5.462-1.597c2.493-0.63,5.021-1.181,7.584-1.617
			c-3.031-14.104-7.305-27.172-11.748-38.888c-46.992,14.593-99.021,14.984-99.021,14.984s-52.02-0.393-99.009-14.979
			C17.622,354.551,13.342,367.621,10.309,381.705z M31.895,354.518l89.188,6.688l89.188-6.688c0,0-36.039,43.836-89.188,43.719l0,0
			C67.932,398.354,31.895,354.518,31.895,354.518z"/>
		<g opacity="0.3">
			<path fill="#030104" d="M17.626,380.861c1.47,0.371,2.904,0.826,4.349,1.26c0.892,0.268,1.799,0.496,2.681,0.783
				c1.847,0.609,3.661,1.294,5.464,1.99c0.438,0.166,0.88,0.313,1.313,0.486c1.886,0.756,3.738,1.576,5.574,2.418
				c0.327,0.15,0.661,0.284,0.984,0.438c1.313,0.691,12.827,6.771,17.036,9.502c0.004,0.005,0.01,0.005,0.019,0.009
				c30.882,20.241,50.796,49.222,53.297,52.966c0.18,0.268,0.277,0.421,0.277,0.421l12.016,0.117v0.013l0.444-0.005l0.444,0.005
				v-0.013l12.014-0.117c0,0,20.521-31.731,53.595-53.399c4.153-2.688,15.452-8.658,17.036-9.496c1.91-0.896,3.84-1.776,5.812-2.581
				c0.052-0.021,0.104-0.038,0.15-0.056c2.252-0.916,4.536-1.768,6.854-2.539c0.602-0.199,1.223-0.35,1.817-0.541
				c1.806-0.563,3.611-1.125,5.462-1.598c2.311-0.583,4.661-1.074,7.038-1.496c0.175,0.768,0.384,1.5,0.546,2.276
				c-2.563,0.438-5.091,0.987-7.584,1.617c-1.851,0.467-3.656,1.028-5.462,1.597c-0.596,0.188-1.217,0.338-1.817,0.538
				c-2.317,0.771-4.603,1.626-6.854,2.539c-0.046,0.021-0.1,0.032-0.15,0.054c-1.972,0.805-3.901,1.686-5.812,2.585
				c-1.584,0.834-12.883,6.806-17.036,9.494c-33.075,21.672-53.595,53.399-53.595,53.399l-12.014,0.121v0.004l-0.444-0.004
				l-0.444,0.004v-0.004l-12.016-0.121c0,0-0.098-0.154-0.277-0.421c-2.501-3.74-22.416-32.729-53.297-52.968
				c-0.008-0.004-0.015-0.008-0.019-0.012c-4.209-2.727-15.722-8.807-17.036-9.498c-0.323-0.154-0.657-0.287-0.984-0.438
				c-1.836-0.844-3.688-1.664-5.574-2.418c-0.434-0.176-0.875-0.317-1.313-0.488c-1.803-0.7-3.617-1.381-5.464-1.988
				c-0.882-0.288-1.789-0.518-2.681-0.783c-1.445-0.435-2.879-0.889-4.349-1.26c-2.406-0.604-4.842-1.13-7.317-1.551
				c0.167-0.776,0.373-1.51,0.546-2.277C13.14,379.833,15.397,380.305,17.626,380.861z"/>
		</g>
		<path fill="#030104" d="M92.81,363.969L92.81,363.969c0.392,0.033,0.74,0.063,1.124,0.096c-1.094,2.64-5.628,12.111-17.423,23.92
			c-0.35-0.162-0.684-0.334-1.03-0.496C89.183,374.217,92.81,363.969,92.81,363.969z"/>
		<path fill="#030104" d="M149.36,363.969L149.36,363.969c-0.392,0.033-0.742,0.063-1.126,0.096
			c1.092,2.64,5.628,12.111,17.428,23.92c0.346-0.162,0.684-0.334,1.025-0.496C152.987,374.217,149.36,363.969,149.36,363.969z"/>
		<path fill="#030104" d="M121.08,366.207c0,0-53.312-0.408-101.969-15.242c0.971-2.771,1.958-5.504,2.96-8.143
			c46.99,14.588,99.009,14.979,99.009,14.979s52.027-0.393,99.02-14.983c1.006,2.639,1.988,5.369,2.961,8.146
			C174.404,365.799,121.08,366.207,121.08,366.207z"/>
		<path opacity="0.5" fill="#030104" enable-background="new    " d="M121.08,366.207c0,0-53.312-0.408-101.969-15.242
			c0.971-2.771,1.958-5.504,2.96-8.143c46.99,14.588,99.009,14.979,99.009,14.979s52.027-0.393,99.02-14.983
			c1.006,2.639,1.988,5.369,2.961,8.146C174.404,365.799,121.08,366.207,121.08,366.207z"/>
		<g>
			<g>
				<path fill="#030104" d="M110.881,370.098c-1.002,0.658-1.678,2.192-1.715,2.389c-0.038,0.188-0.425-0.42-0.542-0.616
					c-0.115-0.188-1.762,1.088-1.901,3.97c-0.144,2.876,2.018,6.157,4.899,6.237c2.76,0.079,3.692-1.414,3.575-2.452
					c-0.064-0.546-0.517-0.941-1.036-0.938c-0.519,0-0.938,0.426-0.934,0.946c0,0.521,0.421,0.938,0.942,0.938
					c-1.419,0.134-3.8-1.264-3.085-3.664c0.713-2.402,2.854-1.936,3.418-1.678c0.565,0.26,0.509,0.821,0.509,0.821
					c-0.277-0.254-0.665-0.04-0.798,0.15c-0.127,0.188-0.196,0.926,0.513,1.067c0.711,0.142,1.647-0.181,2.164-1.238
					c0.515-1.055,0.094-2.109,0.05-2.197c-0.043-0.088,0.884,0.283,0.926,0.188c0.042-0.104-0.077-1.358-1.092-2.321
					c-1.018-0.972-1.926-0.775-1.926-0.775s0.675-0.726,0.763-0.858c0.085-0.129-0.002-0.229-1.101-0.254
					c-1.099-0.024-2.222,0.916-2.239,0.959c-0.011,0.045-0.015-0.935-0.019-1.108C112.251,369.484,111.88,369.443,110.881,370.098z
					 M115.697,373.883c0.582,1.168,0.148,1.807,0.148,1.807c-0.561-3.34-5.56-2.494-6.052,0.934
					c-0.494,3.428,2.938,4.193,2.938,4.193c-2.373,0.014-4.459-1.93-4.08-4.318c0.382-2.389,1.764-3.564,3.369-4.002
					C113.623,372.053,115.113,372.716,115.697,373.883z"/>
			</g>
			<g>
				<path fill="#030104" d="M108.97,384.615c0.025,0.023-0.665-0.385-0.786-0.455c-0.123-0.075-0.309,0.171-0.267,1.146
					c0.04,0.971,0.832,2.084,0.948,2.192c0.119,0.108-0.469,0.121-0.652,0.121c-0.182,0.004,0.021,1.685,1.974,2.989
					s5.149,1.162,6.41-0.813c1.209-1.899,0.561-3.173-0.217-3.522c-0.411-0.188-0.874-0.033-1.088,0.33
					c-0.217,0.361-0.096,0.83,0.269,1.047c0.363,0.217,0.834,0.1,1.051-0.269c-0.5,1.056-2.475,2.132-3.853,0.63
					c-1.382-1.505-0.158-2.806,0.258-3.094c0.417-0.283,0.786-0.013,0.786-0.013c-0.296,0.084-0.304,0.45-0.227,0.62
					c0.075,0.164,0.565,0.521,0.959,0.089c0.396-0.435,0.563-1.229,0.042-2.03c-0.523-0.805-1.438-0.945-1.518-0.955
					c-0.075-0.004,0.569-0.496,0.517-0.57c-0.054-0.07-0.98-0.514-2.081-0.209c-1.101,0.31-1.347,1.025-1.347,1.025
					s-0.225-0.779-0.277-0.893c-0.056-0.112-0.165-0.096-0.642,0.662C108.757,383.404,108.947,384.586,108.97,384.615
					L108.97,384.615z M112.574,383.521c1.063,0.08,1.328,0.65,1.328,0.65c-2.573-1.009-4.071,2.839-1.882,4.619
					c2.193,1.775,4.163-0.3,4.163-0.3c-0.986,1.663-3.219,2.313-4.728,1.047c-1.507-1.265-1.749-2.724-1.389-4.028
					C110.429,384.206,111.515,383.439,112.574,383.521z"/>
			</g>
			<g>
				<path fill="#030104" d="M120.408,393.934c-0.027-0.018,0.603,0.096,0.713,0.116c0.112,0.021,0.186-0.213-0.119-0.934
					c-0.302-0.718-1.209-1.335-1.332-1.38c-0.117-0.047,0.319-0.223,0.457-0.275c0.135-0.055-0.486-1.26-2.316-1.688
					c-1.833-0.43-4.192,0.57-4.584,2.408c-0.375,1.765,0.471,2.535,1.155,2.582c0.356,0.024,0.663-0.218,0.723-0.551
					c0.059-0.334-0.163-0.654-0.496-0.714c-0.333-0.063-0.652,0.163-0.713,0.496c0.079-0.931,1.255-2.293,2.712-1.552
					c1.457,0.738,0.907,2.061,0.671,2.391c-0.231,0.333-0.583,0.232-0.583,0.232c0.198-0.149,0.102-0.42-0.004-0.529
					c-0.106-0.104-0.569-0.232-0.744,0.205c-0.173,0.438-0.079,1.074,0.54,1.529c0.619,0.459,1.342,0.313,1.405,0.291
					c0.061-0.017-0.29,0.535-0.229,0.576c0.06,0.037,0.881,0.108,1.622-0.43c0.741-0.538,0.719-1.146,0.719-1.146
					s0.388,0.521,0.465,0.593c0.071,0.065,0.148,0.024,0.292-0.677C120.906,394.779,120.429,393.941,120.408,393.934
					L120.408,393.934z M118.009,395.759c-0.819,0.242-1.18-0.112-1.18-0.112c2.212,0.029,2.257-3.271,0.113-3.994
					c-2.139-0.717-3.036,1.394-3.036,1.394c0.273-1.524,1.766-2.639,3.252-2.108c1.488,0.521,2.08,1.551,2.17,2.625
					C119.424,394.646,118.824,395.525,118.009,395.759z"/>
			</g>
			<g>
				<path fill="#030104" d="M118.194,368.342c0,0.021-0.167-0.425-0.198-0.504c-0.029-0.079-0.208-0.038-0.55,0.434
					c-0.344,0.463-0.394,1.279-0.379,1.371c0.017,0.098-0.261-0.115-0.348-0.184c-0.083-0.07-0.619,0.789-0.198,2.123
					c0.421,1.338,1.959,2.464,3.283,2.018c1.272-0.43,1.443-1.271,1.215-1.722c-0.123-0.237-0.392-0.342-0.632-0.255
					c-0.233,0.092-0.356,0.354-0.265,0.588c0.088,0.238,0.351,0.359,0.588,0.271c-0.625,0.3-1.943,0.063-2.026-1.146
					c-0.079-1.214,0.976-1.363,1.276-1.339c0.302,0.017,0.371,0.288,0.371,0.288c-0.171-0.071-0.311,0.092-0.337,0.199
					c-0.027,0.109,0.064,0.455,0.415,0.4c0.344-0.055,0.715-0.363,0.773-0.93c0.056-0.566-0.311-0.977-0.346-1.009
					c-0.033-0.034,0.448-0.019,0.453-0.071c0.004-0.055-0.265-0.604-0.888-0.876c-0.627-0.267-1.009-0.024-1.009-0.024
					s0.186-0.445,0.204-0.518c0.015-0.075-0.042-0.107-0.546,0.066C118.544,367.7,118.19,368.316,118.194,368.342L118.194,368.342z"
					/>
			</g>
			<g>
				
					<rect x="110.387" y="377.596" transform="matrix(0.6732 0.7394 -0.7394 0.6732 316.1018 40.2216)" fill="#030104" width="4.313" height="0.308"/>
			</g>
			<g>
				
					<rect x="114.646" y="376.887" transform="matrix(0.9515 0.3077 -0.3077 0.9515 121.9374 -16.9784)" fill="#030104" width="0.311" height="2.498"/>
			</g>
			<g>
				
					<rect x="116.06" y="377.526" transform="matrix(0.3987 0.9171 -0.9171 0.3987 417.4872 121.3409)" fill="#030104" width="0.31" height="3.001"/>
			</g>
			<g>
				<path fill="#030104" d="M120.233,382.468c-0.152-0.491-1.734-2.21-1.855-2.089c-0.115,0.112-0.194,0.821-0.194,0.821
					c-0.629-0.442-2.247-0.667-2.468-0.438c-0.219,0.233,1.09,2.223,1.09,2.223s-1.207,0-0.999,0.129
					c0.204,0.134,2.312,2.322,2.312,2.322s-0.624-0.205-0.903-0.226c-0.286-0.024,0.205,0.167,0.936,1.622
					c0.734,1.445-0.269,2.822-1.268,3.665c0,0,1.243,0.004,2.429-1.03c1.188-1.033,1.624-1.96,1.909-3.705
					c0.286-1.753-0.2-3.898-0.388-3.707C120.646,382.238,120.381,382.955,120.233,382.468z M120.281,385.42
					c0.429,3.186-2.285,4.573-2.285,4.573c0.661-0.509,1.626-2.485,1.345-4.044c-0.282-1.568-1.124-3.133-2.798-4.809
					C116.543,381.143,119.858,382.238,120.281,385.42z"/>
			</g>
			<g>
				<polygon fill="#030104" points="113.998,381.607 116.271,381.863 116.297,381.546 114.027,381.296 				"/>
			</g>
			<g>
				<path fill="#030104" d="M120.859,383.727c-0.178-0.834-0.296-2.15-2.308-4.006c-2.011-1.854-1.361-3.615-1.146-4.091
					c0.221-0.483,1.363-1.459,2.677-0.604c1.317,0.854,0.434,3.039-1.059,2.436c0,0-0.413,0.501,0.694,1.646
					c1.113,1.146,1.203,2.067,1.299,2.853C121.15,383.085,120.859,383.727,120.859,383.727z"/>
			</g>
			<g>
				
					<rect x="118.936" y="380.459" transform="matrix(0.6926 0.7213 -0.7213 0.6926 311.5871 31.2842)" fill="#030104" width="0.306" height="1.512"/>
			</g>
			<g>
				
					<rect x="116.008" y="376.654" transform="matrix(0.9839 0.1788 -0.1788 0.9839 69.243 -14.8021)" fill="#030104" width="1.491" height="0.31"/>
			</g>
			<g>
				<path fill="#030104" d="M116.792,373.438c0.015,0.013,1.634,1.354,1.901,1.602l0.204-0.227c-0.269-0.25-1.845-1.555-1.914-1.608
					L116.792,373.438z"/>
			</g>
			<g>
				
					<rect x="117.472" y="384.646" transform="matrix(0.4204 0.9074 -0.9074 0.4204 418.2839 116.9241)" fill="#030104" width="0.308" height="2.409"/>
			</g>
			<g>
				
					<rect x="114.758" y="382.888" transform="matrix(0.8146 0.58 -0.58 0.8146 245.2655 4.9362)" fill="#030104" width="0.308" height="6.447"/>
			</g>
		</g>
		<g>
			<g>
				<path fill="#030104" d="M129.906,369.66c0,0.175-0.004,1.154-0.017,1.107c-0.017-0.041-1.143-0.982-2.241-0.959
					c-1.096,0.025-1.184,0.125-1.096,0.256c0.083,0.133,0.763,0.857,0.763,0.857s-0.911-0.195-1.929,0.775
					c-1.013,0.963-1.134,2.218-1.092,2.322c0.046,0.096,0.972-0.275,0.926-0.188c-0.042,0.088-0.467,1.144,0.048,2.196
					c0.517,1.06,1.459,1.381,2.164,1.238c0.711-0.142,0.643-0.88,0.513-1.066c-0.129-0.191-0.521-0.404-0.796-0.15
					c0,0-0.054-0.563,0.513-0.82c0.561-0.258,2.704-0.727,3.421,1.676c0.709,2.402-1.667,3.799-3.091,3.664
					c0.519,0,0.94-0.416,0.944-0.938c0-0.521-0.417-0.947-0.936-0.947c-0.521-0.004-0.974,0.394-1.034,0.938
					c-0.121,1.038,0.813,2.53,3.571,2.452c2.881-0.08,5.044-3.361,4.903-6.237c-0.146-2.882-1.789-4.157-1.905-3.97
					c-0.117,0.195-0.5,0.805-0.538,0.617c-0.038-0.196-0.717-1.73-1.714-2.389C130.281,369.443,129.906,369.484,129.906,369.66z
					 M130.139,372.495c1.601,0.438,2.99,1.612,3.369,4.002c0.383,2.39-1.709,4.332-4.078,4.319c0,0,3.427-0.768,2.935-4.194
					c-0.492-3.427-5.491-4.272-6.054-0.935c0,0-0.432-0.638,0.152-1.806C127.046,372.716,128.539,372.053,130.139,372.495z"/>
			</g>
			<g>
				<path fill="#030104" d="M133.191,384.615c0.025-0.029,0.217-1.211-0.267-1.969c-0.475-0.76-0.583-0.775-0.634-0.662
					c-0.058,0.111-0.283,0.892-0.283,0.892s-0.246-0.717-1.347-1.024c-1.097-0.306-2.022,0.138-2.081,0.207
					c-0.05,0.075,0.6,0.567,0.517,0.571c-0.079,0.009-0.995,0.15-1.514,0.955c-0.523,0.802-0.356,1.597,0.038,2.03
					c0.398,0.434,0.884,0.074,0.959-0.088c0.083-0.172,0.071-0.537-0.225-0.621c0,0,0.371-0.271,0.784,0.013
					c0.417,0.288,1.643,1.589,0.263,3.095c-1.382,1.5-3.354,0.424-3.852-0.631c0.217,0.367,0.688,0.484,1.048,0.268
					c0.363-0.217,0.486-0.685,0.269-1.047c-0.217-0.362-0.68-0.518-1.086-0.328c-0.777,0.35-1.43,1.621-0.219,3.521
					c1.259,1.977,4.461,2.118,6.413,0.813c1.951-1.305,2.151-2.984,1.968-2.988c-0.18,0-0.768-0.014-0.65-0.121
					c0.117-0.107,0.909-1.223,0.95-2.193c0.042-0.976-0.146-1.222-0.267-1.146C133.854,384.23,133.167,384.641,133.191,384.615
					L133.191,384.615z M132.09,385.511c0.367,1.306,0.125,2.765-1.384,4.028c-1.514,1.268-3.746,0.615-4.728-1.047
					c0,0,1.97,2.076,4.161,0.3c2.189-1.78,0.692-5.628-1.88-4.619c0,0,0.263-0.571,1.326-0.649
					C130.648,383.439,131.728,384.206,132.09,385.511z"/>
			</g>
			<g>
				<path fill="#030104" d="M121.755,393.934c-0.027,0.008-0.502,0.846-0.356,1.547c0.148,0.699,0.219,0.742,0.296,0.676
					c0.071-0.071,0.458-0.592,0.458-0.592s-0.015,0.607,0.721,1.146c0.74,0.538,1.559,0.467,1.62,0.429
					c0.061-0.041-0.288-0.592-0.227-0.574c0.061,0.021,0.786,0.166,1.405-0.293c0.617-0.453,0.713-1.092,0.538-1.528
					c-0.175-0.438-0.638-0.31-0.744-0.205c-0.106,0.108-0.2,0.38,0,0.53c0,0-0.357,0.1-0.588-0.233
					c-0.231-0.33-0.786-1.651,0.671-2.39c1.457-0.742,2.635,0.621,2.714,1.551c-0.061-0.333-0.379-0.559-0.713-0.496
					c-0.333,0.059-0.555,0.38-0.494,0.714c0.057,0.333,0.365,0.575,0.721,0.55c0.686-0.046,1.528-0.816,1.153-2.58
					c-0.392-1.839-2.748-2.84-4.58-2.41s-2.456,1.635-2.318,1.688c0.135,0.054,0.573,0.229,0.455,0.274
					c-0.117,0.045-1.026,0.662-1.328,1.381c-0.304,0.721-0.231,0.953-0.121,0.934C121.148,394.029,121.782,393.916,121.755,393.934
					L121.755,393.934z M122.829,393.563c0.094-1.076,0.688-2.105,2.17-2.627c1.488-0.528,2.983,0.584,3.256,2.109
					c0,0-0.894-2.109-3.04-1.393c-2.141,0.722-2.095,4.022,0.115,3.994c0,0-0.356,0.354-1.178,0.111
					C123.333,395.525,122.735,394.646,122.829,393.563z"/>
			</g>
			<g>
				<path fill="#030104" d="M123.967,368.342c0-0.023-0.352-0.642-0.857-0.816c-0.504-0.176-0.563-0.143-0.544-0.066
					c0.017,0.071,0.202,0.518,0.202,0.518s-0.379-0.242-1.007,0.024c-0.625,0.271-0.89,0.821-0.89,0.876
					c0.002,0.055,0.49,0.037,0.455,0.071c-0.033,0.032-0.407,0.44-0.348,1.009c0.056,0.566,0.427,0.875,0.777,0.93
					c0.344,0.055,0.436-0.291,0.409-0.4c-0.025-0.107-0.167-0.271-0.338-0.199c0,0,0.073-0.271,0.374-0.288
					c0.3-0.024,1.355,0.125,1.273,1.339c-0.079,1.209-1.399,1.446-2.022,1.146c0.235,0.088,0.498-0.033,0.588-0.271
					c0.087-0.232-0.033-0.496-0.269-0.588c-0.235-0.087-0.508,0.018-0.625,0.255c-0.231,0.45-0.058,1.292,1.209,1.722
					c1.326,0.446,2.867-0.68,3.288-2.018c0.421-1.334-0.115-2.193-0.2-2.123c-0.086,0.066-0.365,0.28-0.351,0.184
					c0.015-0.092-0.033-0.908-0.375-1.371c-0.346-0.472-0.523-0.513-0.555-0.434C124.133,367.917,123.962,368.363,123.967,368.342
					L123.967,368.342z"/>
			</g>
			<g>
				
					<rect x="127.44" y="377.573" transform="matrix(-0.673 0.7397 -0.7397 -0.673 496.2035 536.0684)" fill="#030104" width="4.312" height="0.309"/>
			</g>
			<g>
				
					<rect x="127.194" y="376.902" transform="matrix(-0.9507 0.3101 -0.3101 -0.9507 365.6681 698.1836)" fill="#030104" width="0.309" height="2.499"/>
			</g>
			<g>
				
					<rect x="125.818" y="377.546" transform="matrix(-0.3932 0.9195 -0.9195 -0.3932 524.0209 412.2413)" fill="#030104" width="0.308" height="3"/>
			</g>
			<g>
				<path fill="#030104" d="M121.326,382.055c-0.19-0.191-0.676,1.955-0.39,3.707c0.283,1.746,0.721,2.672,1.907,3.706
					c1.188,1.034,2.429,1.03,2.429,1.03c-0.997-0.844-2-2.219-1.268-3.665c0.734-1.455,1.224-1.647,0.942-1.622
					c-0.286,0.021-0.905,0.225-0.905,0.225s2.103-2.188,2.312-2.322c0.206-0.129-0.999-0.129-0.999-0.129s1.312-1.987,1.086-2.221
					c-0.219-0.229-1.833-0.006-2.462,0.438c0,0-0.083-0.709-0.198-0.821c-0.121-0.121-1.703,1.597-1.851,2.089
					C121.778,382.955,121.511,382.238,121.326,382.055z M125.614,381.143c-1.67,1.676-2.516,3.238-2.795,4.808
					c-0.277,1.559,0.682,3.534,1.342,4.044c0,0-2.714-1.389-2.285-4.573C122.305,382.238,125.614,381.143,125.614,381.143z"/>
			</g>
			<g>
				<polygon fill="#030104" points="128.161,381.607 125.887,381.863 125.862,381.546 128.134,381.296 				"/>
			</g>
			<g>
				<path fill="#030104" d="M121.298,383.727c0.18-0.834,0.296-2.15,2.308-4.006c2.012-1.854,1.368-3.615,1.146-4.091
					c-0.217-0.483-1.359-1.459-2.674-0.604c-1.317,0.854-0.434,3.039,1.057,2.436c0,0,0.415,0.501-0.694,1.646
					c-1.107,1.146-1.203,2.067-1.297,2.853C121.011,383.085,121.298,383.727,121.298,383.727z"/>
			</g>
			<g>
				
					<rect x="122.895" y="380.438" transform="matrix(-0.6926 0.7213 -0.7213 -0.6926 483.2348 556.4487)" fill="#030104" width="0.306" height="1.51"/>
			</g>
			<g>
				
					<rect x="124.666" y="376.662" transform="matrix(-0.9839 0.1787 -0.1787 -0.9839 316.1472 725.1548)" fill="#030104" width="1.492" height="0.31"/>
			</g>
			<g>
				<path fill="#030104" d="M125.372,373.438c-0.019,0.013-1.641,1.354-1.901,1.602l-0.208-0.227
					c0.269-0.25,1.843-1.555,1.912-1.608L125.372,373.438z"/>
			</g>
			<g>
				
					<rect x="124.416" y="384.675" transform="matrix(-0.4192 0.9079 -0.9079 -0.4192 527.1309 434.5264)" fill="#030104" width="0.309" height="2.411"/>
			</g>
			<g>
				
					<rect x="127.077" y="382.905" transform="matrix(-0.8135 0.5815 -0.5815 -0.8135 455.2833 626.2627)" fill="#030104" width="0.307" height="6.447"/>
			</g>
		</g>
	</g>
	<g>
		<path fill="#030104" d="M226.824,194.122c-0.008,0.116-0.018,0.316-0.033,0.479c-0.018,0.305-0.041,0.663-0.074,1.101
			c-0.009,0.129-0.021,0.279-0.033,0.417c-0.041,0.563-0.104,1.222-0.184,1.955c-0.021,0.229-0.042,0.455-0.066,0.7
			c-0.051,0.434-0.101,0.893-0.154,1.376c-0.079,0.646-0.162,1.326-0.26,2.052C185.7,142.49,177.186,81.223,175.623,64.521
			c2.652-0.888,4.197-1.484,4.197-1.484s3.845,66.733,47.029,130.547c0,0-0.008,0.134-0.008,0.204
			C226.836,193.872,226.833,193.984,226.824,194.122z"/>
		<path fill="#030104" d="M121.08,221.563c16.981,0,29.981,30.281,64.895,27.501c30.895-2.461,38.244-59.476,38.244-59.476
			s0.029,0.013,0.033,0.013c0.855,1.33,1.705,2.664,2.598,3.981c0,0-1.149,35.146-21.555,65.753c0,0-40.192-3.4-84.215-3.4l0,0
			V221.563L121.08,221.563z"/>
		<path fill="#030104" d="M121.08,221.563c-16.983,0-29.981,30.281-64.896,27.501c-30.894-2.461-38.238-59.476-38.238-59.476
			s-0.031,0.013-0.037,0.013c-0.859,1.33-1.709,2.664-2.6,3.981c0,0,1.152,35.146,21.555,65.753c0,0,40.189-3.4,84.217-3.4l0,0
			L121.08,221.563L121.08,221.563z"/>
		<path fill="#030104" d="M187.643,20.339c0,0-5.774,25.136-7.822,42.697l-4.198,1.484c0,0,3.323-25.604,8.76-45.724L187.643,20.339
			z"/>
		<path fill="#030104" d="M15.337,194.122c0.004,0.116,0.019,0.316,0.027,0.479c0.019,0.305,0.046,0.663,0.079,1.101
			c0.008,0.129,0.023,0.279,0.036,0.417c0.044,0.563,0.104,1.222,0.177,1.955c0.023,0.229,0.045,0.455,0.073,0.7
			c0.046,0.434,0.098,0.893,0.154,1.376c0.077,0.646,0.161,1.326,0.259,2.052C56.457,142.49,64.976,81.223,66.538,64.521
			c-2.649-0.888-4.198-1.484-4.198-1.484s-3.849,66.733-47.027,130.547c0,0,0.002,0.134,0.006,0.204
			C15.323,193.872,15.331,193.984,15.337,194.122z"/>
		<path fill="#030104" d="M54.513,20.339c0,0,5.777,25.136,7.826,42.697l4.198,1.484c0,0-3.319-25.604-8.755-45.724L54.513,20.339z"
			/>
		<path fill="#030104" d="M121.08,86.172c-24.163,0-50.688-7.092-60.254-10.114c1.23-8.214,1.514-13.021,1.514-13.021
			S91.201,74.21,121.08,74.21c29.881,0,58.74-11.173,58.74-11.173s0.287,4.807,1.514,13.021
			C171.765,79.08,145.24,86.172,121.08,86.172z"/>
		<g>
			<g>
				<g>
					<path fill="#030104" d="M46.525,216.39c0.134-0.421,0.896-2.818,0.896-2.701c0,0.116,2.026,3.281,4.724,4.061
						c2.702,0.779,2.996,0.601,2.881,0.213c-0.111-0.384-1.207-2.673-1.207-2.673s2.076,1.163,5.291-0.412
						c3.219-1.581,4.47-4.558,4.444-4.841c-0.027-0.279-2.574-0.075-2.403-0.255c0.175-0.179,2.012-2.426,1.562-5.403
						c-0.453-2.977-2.498-4.478-4.338-4.673c-1.838-0.196-2.232,1.659-2.062,2.218c0.17,0.559,0.957,1.388,1.826,0.967
						c0,0-0.292,1.418-1.872,1.618c-1.574,0.195-7.161-0.296-7.065-6.704c0.09-6.413,6.971-8.001,10.338-6.579
						c-1.268-0.404-2.623,0.296-3.025,1.563c-0.402,1.267,0.298,2.622,1.568,3.022c1.267,0.404,2.666-0.213,3.235-1.497
						c1.09-2.455-0.048-6.8-6.851-8.718c-7.087-2.001-14.88,4.349-16.731,11.49c-1.853,7.143,1.195,11.512,1.624,11.132
						c0.429-0.379,1.841-1.58,1.785-1.084c-0.055,0.501,0.425,4.771,2.364,7.138C45.447,216.64,46.392,216.815,46.525,216.39z
						 M48.116,209.294c-3.575-2.298-6.054-6.229-5.162-12.345c0.892-6.121,7.48-9.269,13.26-7.435c0,0-8.962-0.746-10.375,7.997
						c-1.417,8.747,10.14,14.634,14.067,6.904c0,0,0.565,1.889-1.753,4.294C55.839,211.12,51.695,211.591,48.116,209.294z"/>
				</g>
			</g>
			<g>
				<g>
					<path fill="#030104" d="M49.934,177.378c-0.08,0.046-1.447,2.785-0.861,4.999c0.583,2.214,0.83,2.339,1.055,2.102
						c0.219-0.237,1.361-1.96,1.361-1.96s0.054,1.935,2.506,3.523c2.447,1.589,5.055,1.222,5.236,1.084
						c0.186-0.138-1.021-1.835-0.823-1.784c0.198,0.046,2.539,0.388,4.43-1.172c1.889-1.563,2.083-3.619,1.453-4.986
						c-0.634-1.367-2.095-0.867-2.414-0.513c-0.319,0.35-0.569,1.246,0.087,1.68c0,0-1.115,0.388-1.914-0.629
						c-0.796-1.018-2.789-5.129,1.73-7.747c4.522-2.614,8.51,1.526,8.922,4.474c-0.25-1.055-1.305-1.705-2.36-1.459
						c-1.051,0.254-1.703,1.31-1.453,2.359c0.246,1.056,1.263,1.776,2.397,1.639c2.172-0.267,4.732-2.881,3.231-8.435
						c-1.567-5.795-9.264-8.58-15.032-6.892c-5.766,1.693-7.544,5.649-7.102,5.791c0.448,0.142,1.876,0.626,1.507,0.797
						c-0.371,0.171-3.16,2.289-4.002,4.636c-0.844,2.344-0.571,3.077-0.221,2.998C48.02,177.795,50.013,177.328,49.934,177.378
						L49.934,177.378z M53.296,176.023c0.111-3.461,1.822-6.838,6.471-8.772s9.606,1.355,10.74,6.158c0,0-3.227-6.571-9.927-3.902
						c-6.706,2.668-5.987,13.204,1.053,12.716c0,0-1.08,1.185-3.733,0.575C55.25,182.186,53.186,179.488,53.296,176.023z"/>
				</g>
			</g>
			<g>
				<g>
					<path fill="#030104" d="M84.97,163.365c0.075-0.013,1.866-1.685,2.049-3.511c0.181-1.821,0.029-1.988-0.202-1.872
						c-0.236,0.117-1.574,1.089-1.574,1.089s0.505-1.468-0.888-3.344c-1.393-1.881-3.45-2.335-3.629-2.285
						c-0.173,0.05,0.256,1.664,0.119,1.572c-0.133-0.088-1.795-1.005-3.65-0.367c-1.857,0.642-2.576,2.135-2.487,3.335
						c0.092,1.205,1.324,1.238,1.662,1.06c0.342-0.171,0.782-0.775,0.406-1.284c0,0,0.951,0.021,1.262,1.013
						c0.311,0.988,0.656,4.628-3.469,5.324c-4.125,0.692-5.958-3.531-5.443-5.857c-0.106,0.858,0.5,1.643,1.363,1.751
						c0.861,0.112,1.647-0.496,1.753-1.359c0.11-0.858-0.448-1.688-1.34-1.901c-1.703-0.408-4.361,0.834-4.789,5.421
						c-0.448,4.786,4.542,9.038,9.343,9.385c4.801,0.35,7.244-2.118,6.948-2.352c-0.292-0.229-1.23-0.992-0.903-1.018
						c0.325-0.025,3.012-0.834,4.303-2.355s1.291-2.151,1.007-2.185C86.521,163.586,84.893,163.382,84.97,163.365L84.97,163.365z
						 M82.066,163.437c-1.055,2.568-3.283,4.619-7.313,4.766c-4.034,0.146-6.827-3.707-6.331-7.634c0,0,0.574,5.836,6.354,5.716
						c5.781-0.121,8.192-8.23,2.775-9.84c0,0,1.144-0.584,2.962,0.617C82.333,158.267,83.121,160.872,82.066,163.437z"/>
				</g>
			</g>
			<g>
				<g>
					<path fill="#030104" d="M60.021,224.148c-0.019,0.055,0.367,1.835,1.465,2.644c1.101,0.813,1.263,0.78,1.274,0.588
						c0.015-0.196-0.098-1.422-0.098-1.422s0.749,0.876,2.481,0.7c1.732-0.175,2.802-1.317,2.839-1.45
						c0.036-0.134-1.161-0.472-1.05-0.521c0.11-0.054,1.324-0.767,1.62-2.197c0.296-1.434-0.384-2.464-1.186-2.86
						c-0.805-0.399-1.294,0.38-1.311,0.663c-0.019,0.279,0.198,0.792,0.669,0.747c0,0-0.375,0.596-1.128,0.421
						c-0.746-0.176-3.21-1.343-2.087-4.245c1.124-2.901,4.524-2.468,5.818-1.254c-0.509-0.393-1.247-0.305-1.641,0.208
						c-0.398,0.509-0.306,1.242,0.202,1.639c0.509,0.396,1.251,0.354,1.727-0.138c0.911-0.934,1.123-3.102-1.647-5.124
						c-2.892-2.105-7.511-0.529-9.556,2.41c-2.049,2.938-1.396,5.44-1.138,5.341c0.258-0.101,1.105-0.409,0.995-0.192
						c-0.106,0.217-0.611,2.243-0.129,3.648c0.486,1.405,0.884,1.643,1.017,1.476C59.287,225.058,60.04,224.095,60.021,224.148
						L60.021,224.148z"/>
				</g>
			</g>
			<g>
				<g>
					<polygon fill="#030104" points="48.476,199.346 57.997,193.78 58.397,194.464 48.871,200.025 					"/>
				</g>
			</g>
			<g>
				<g>
					
						<rect x="58.879" y="194.44" transform="matrix(1 -0.0099 0.0099 1 -1.9562 0.5973)" fill="#030104" width="0.788" height="6.384"/>
				</g>
			</g>
			<g>
				<g>
					
						<rect x="62.936" y="192.681" transform="matrix(0.6495 -0.7604 0.7604 0.6495 -127.2335 117.0432)" fill="#030104" width="0.783" height="7.675"/>
				</g>
			</g>
			<g>
				<g>
					<path fill="#030104" d="M76.942,192.691c0.315,0.605,3.144-4.265,3.784-8.759c0.642-4.49,0.286-7.071-1.824-10.503
						c-2.11-3.431-5.147-4.373-5.147-4.373c1.795,2.826,3.184,6.941,0.292,9.927c-2.896,2.981-4.234,3.068-3.529,3.235
						c0.703,0.171,2.381,0.138,2.381,0.138s-6.813,3.731-7.417,3.894c-0.606,0.167,2.335,1.084,2.335,1.084
						s-4.717,3.865-4.353,4.595c0.365,0.734,4.473,1.418,6.352,0.817c0,0-0.34,1.793-0.15,2.155c0.204,0.388,5.38-2.598,6.12-3.677
						C76.525,190.141,76.627,192.092,76.942,192.691z M65.771,191.637c5.366-2.818,8.622-5.991,10.5-9.593
						c1.878-3.603,1.032-9.16-0.189-10.903c0,0,5.564,5.462,2.086,12.904C74.697,191.487,65.771,191.637,65.771,191.637z"/>
				</g>
			</g>
			<g>
				<g>
					<polygon fill="#030104" points="59.915,188.552 65.656,189.669 65.485,190.461 59.744,189.344 					"/>
				</g>
			</g>
			<g>
				<g>
					<path fill="#030104" d="M78.278,188.623c-1.069,1.9-2.364,5.032-8.695,8.025c-6.325,2.993-6.087,7.768-5.92,9.109
						c0.169,1.339,2.21,4.6,6.073,3.52c3.863-1.084,3.377-7.097-0.723-6.759c0,0-0.632-1.538,2.956-3.493
						c3.581-1.951,4.515-4.124,5.338-5.963C78.503,190.411,78.278,188.623,78.278,188.623z"/>
				</g>
			</g>
			<g>
				<g>
					<polygon fill="#030104" points="70.771,191.941 71.463,191.563 73.325,194.943 72.639,195.322 					"/>
				</g>
			</g>
			<g>
				<g>
					
						<rect x="61.029" y="201.962" transform="matrix(0.9921 0.1255 -0.1255 0.9921 25.8857 -6.2978)" fill="#030104" width="3.822" height="0.782"/>
				</g>
			</g>
			<g>
				<g>
					<path fill="#030104" d="M60.484,210.632c0.052-0.021,5.036-2.06,5.866-2.455l0.335,0.713c-0.851,0.4-5.693,2.385-5.902,2.468
						L60.484,210.632z"/>
				</g>
			</g>
			<g>
				<g>
					<polygon fill="#030104" points="69.437,179.138 69.962,178.55 74.541,182.682 74.013,183.27 					"/>
				</g>
			</g>
			<g>
				<g>
					<polygon fill="#030104" points="62.704,170.482 63.45,170.24 68.491,185.934 67.747,186.176 					"/>
				</g>
			</g>
		</g>
		<g>
			<path fill="#030104" d="M66.654,249.744l1.313-1.436c-0.152-0.142-15.435-14.5-10.167-33.175l-1.868-0.525
				C50.336,234.447,66.492,249.59,66.654,249.744z"/>
		</g>
		<g>
			<g>
				<g>
					<path fill="#030104" d="M198.648,214.271c1.942-2.367,2.418-6.637,2.367-7.138c-0.059-0.496,1.352,0.705,1.785,1.084
						c0.43,0.38,3.473-3.989,1.622-11.132c-1.854-7.142-9.639-13.491-16.731-11.49c-6.795,1.918-7.938,6.263-6.854,8.718
						c0.571,1.284,1.973,1.901,3.239,1.497c1.269-0.4,1.972-1.756,1.567-3.022c-0.403-1.268-1.754-1.968-3.022-1.563
						c3.369-1.422,10.244,0.166,10.34,6.579c0.093,6.408-5.495,6.899-7.071,6.704c-1.576-0.2-1.867-1.618-1.867-1.618
						c0.867,0.421,1.65-0.408,1.822-0.967c0.174-0.559-0.222-2.414-2.061-2.218c-1.84,0.195-3.883,1.696-4.34,4.673
						c-0.45,2.978,1.389,5.225,1.56,5.403c0.175,0.18-2.373-0.024-2.401,0.255c-0.025,0.283,1.233,3.26,4.444,4.841
						c3.218,1.575,5.295,0.412,5.295,0.412s-1.101,2.289-1.209,2.673c-0.108,0.388,0.175,0.566,2.878-0.213
						c2.701-0.779,4.727-3.944,4.727-4.061s0.764,2.28,0.893,2.701C195.771,216.815,196.709,216.64,198.648,214.271z
						 M184.006,208.71c-2.318-2.405-1.751-4.294-1.751-4.294c3.927,7.729,15.479,1.843,14.067-6.904
						c-1.418-8.743-10.373-7.997-10.373-7.997c5.779-1.834,12.365,1.313,13.258,7.435c0.893,6.115-1.584,10.047-5.162,12.345
						C190.464,211.591,186.32,211.12,184.006,208.71z"/>
				</g>
			</g>
			<g>
				<g>
					<path fill="#030104" d="M192.229,177.378c-0.084-0.05,1.908,0.417,2.26,0.505c0.357,0.079,0.625-0.654-0.217-2.998
						c-0.844-2.347-3.627-4.465-4.004-4.636c-0.367-0.171,1.06-0.655,1.506-0.797c0.445-0.142-1.33-4.098-7.101-5.791
						c-5.762-1.688-13.458,1.097-15.026,6.892c-1.505,5.554,1.055,8.168,3.223,8.436c1.134,0.138,2.151-0.583,2.401-1.639
						c0.246-1.05-0.404-2.105-1.455-2.359c-1.06-0.246-2.11,0.404-2.36,1.459c0.417-2.947,4.403-7.088,8.922-4.474
						c4.519,2.618,2.526,6.729,1.726,7.747c-0.791,1.017-1.91,0.629-1.91,0.629c0.66-0.434,0.404-1.33,0.088-1.68
						c-0.321-0.354-1.776-0.854-2.414,0.513c-0.629,1.367-0.438,3.423,1.451,4.986c1.893,1.56,4.236,1.218,4.432,1.172
						c0.195-0.051-1.014,1.646-0.82,1.784c0.184,0.138,2.784,0.505,5.236-1.084s2.501-3.523,2.501-3.523s1.144,1.723,1.368,1.96
						c0.217,0.237,0.467,0.112,1.05-2.102C193.674,180.163,192.311,177.424,192.229,177.378L192.229,177.378z M184.256,182.798
						c-2.652,0.609-3.73-0.575-3.73-0.575c7.041,0.488,7.759-10.048,1.059-12.716c-6.708-2.669-9.931,3.902-9.931,3.902
						c1.138-4.803,6.091-8.093,10.74-6.158c4.653,1.935,6.358,5.312,6.471,8.772C188.973,179.488,186.912,182.186,184.256,182.798z"
						/>
				</g>
			</g>
			<g>
				<g>
					<path fill="#030104" d="M157.194,163.365c0.071,0.017-1.556,0.221-1.839,0.259c-0.292,0.033-0.292,0.663,1,2.185
						s3.978,2.33,4.303,2.355c0.325,0.025-0.609,0.788-0.9,1.018c-0.296,0.233,2.143,2.701,6.946,2.352
						c4.803-0.347,9.798-4.599,9.343-9.385c-0.429-4.587-3.085-5.829-4.786-5.421c-0.892,0.213-1.455,1.043-1.343,1.901
						c0.108,0.863,0.896,1.472,1.755,1.359c0.859-0.108,1.468-0.894,1.359-1.751c0.517,2.326-1.31,6.55-5.437,5.857
						c-4.127-0.696-3.786-4.336-3.473-5.324c0.313-0.992,1.259-1.013,1.259-1.013c-0.371,0.509,0.071,1.113,0.405,1.284
						c0.342,0.179,1.576,0.146,1.667-1.06c0.092-1.2-0.634-2.693-2.489-3.335c-1.855-0.638-3.515,0.279-3.648,0.367
						c-0.133,0.092,0.292-1.522,0.117-1.572c-0.175-0.05-2.235,0.404-3.627,2.285c-1.393,1.876-0.892,3.344-0.892,3.344
						s-1.339-0.972-1.568-1.089c-0.238-0.116-0.384,0.051-0.2,1.872C155.326,161.681,157.114,163.353,157.194,163.365
						L157.194,163.365z M161.65,157.062c1.818-1.201,2.96-0.617,2.96-0.617c-5.42,1.609-3.002,9.719,2.776,9.84
						c5.774,0.12,6.354-5.716,6.354-5.716c0.492,3.927-2.301,7.779-6.333,7.634c-4.032-0.146-6.258-2.197-7.317-4.766
						C159.041,160.872,159.833,158.267,161.65,157.062z"/>
				</g>
			</g>
			<g>
				<g>
					<path fill="#030104" d="M182.139,224.148c-0.018-0.054,0.733,0.909,0.866,1.08c0.134,0.167,0.529-0.07,1.019-1.476
						c0.479-1.405-0.021-3.432-0.135-3.648c-0.107-0.217,0.738,0.092,0.998,0.192c0.262,0.1,0.912-2.402-1.135-5.341
						c-2.051-2.939-6.667-4.516-9.561-2.41c-2.769,2.022-2.555,4.19-1.646,5.124c0.471,0.492,1.217,0.533,1.727,0.138
						c0.508-0.396,0.596-1.13,0.203-1.639c-0.399-0.513-1.129-0.601-1.639-0.208c1.289-1.214,4.689-1.647,5.816,1.254
						c1.117,2.902-1.338,4.069-2.09,4.245c-0.754,0.175-1.121-0.421-1.121-0.421c0.463,0.045,0.68-0.468,0.666-0.747
						c-0.017-0.283-0.508-1.063-1.316-0.663c-0.8,0.396-1.484,1.427-1.184,2.86c0.291,1.431,1.514,2.144,1.621,2.197
						c0.104,0.05-1.084,0.388-1.051,0.521c0.038,0.133,1.109,1.275,2.84,1.45c1.729,0.176,2.477-0.7,2.477-0.7
						s-0.112,1.226-0.1,1.422c0.017,0.192,0.183,0.226,1.274-0.588C181.771,225.983,182.163,224.203,182.139,224.148
						L182.139,224.148z"/>
				</g>
			</g>
			<g>
				<g>
					
						<rect x="183.22" y="196.514" transform="matrix(-0.8635 -0.5044 0.5044 -0.8635 252.3938 462.131)" fill="#030104" width="11.034" height="0.79"/>
				</g>
			</g>
			<g>
				<g>
					
						<rect x="182.505" y="194.457" transform="matrix(-1 -0.0099 0.0099 -1 363.8306 397.1007)" fill="#030104" width="0.788" height="6.384"/>
				</g>
			</g>
			<g>
				<g>
					
						<rect x="178.444" y="192.696" transform="matrix(-0.6505 -0.7595 0.7595 -0.6505 145.8922 460.208)" fill="#030104" width="0.784" height="7.679"/>
				</g>
			</g>
			<g>
				<g>
					<path fill="#030104" d="M166.37,191.225c0.742,1.079,5.92,4.064,6.125,3.677c0.188-0.362-0.146-2.155-0.146-2.155
						c1.871,0.601,5.982-0.083,6.35-0.817c0.361-0.729-4.357-4.595-4.357-4.595s2.943-0.917,2.34-1.084
						c-0.604-0.162-7.417-3.894-7.417-3.894s1.676,0.033,2.38-0.138c0.706-0.167-0.638-0.254-3.531-3.235
						c-2.894-2.985-1.501-7.101,0.292-9.927c0,0-3.035,0.942-5.145,4.373c-2.109,3.432-2.468,6.013-1.826,10.503
						c0.642,4.494,3.469,9.364,3.782,8.759C165.536,192.092,165.632,190.141,166.37,191.225z M163.99,184.045
						c-3.473-7.442,2.088-12.904,2.088-12.904c-1.226,1.743-2.068,7.301-0.192,10.903c1.876,3.602,5.137,6.774,10.502,9.593
						C176.389,191.637,167.467,191.487,163.99,184.045z"/>
				</g>
			</g>
			<g>
				<g>
					<polygon fill="#030104" points="182.247,188.552 176.501,189.669 176.676,190.461 182.417,189.344 					"/>
				</g>
			</g>
			<g>
				<g>
					<path fill="#030104" d="M163.877,188.623c1.076,1.9,2.368,5.032,8.697,8.025c6.328,2.993,6.087,7.768,5.92,9.109
						c-0.167,1.339-2.206,4.6-6.07,3.52c-3.865-1.084-3.377-7.097,0.727-6.759c0,0,0.625-1.538-2.96-3.493
						c-3.581-1.951-4.511-4.124-5.336-5.963C163.66,190.411,163.877,188.623,163.877,188.623z"/>
				</g>
			</g>
			<g>
				<g>
					
						<rect x="169.712" y="191.5" transform="matrix(-0.8758 -0.4827 0.4827 -0.8758 225.7161 444.9429)" fill="#030104" width="0.785" height="3.862"/>
				</g>
			</g>
			<g>
				<g>
					
						<rect x="177.298" y="201.963" transform="matrix(-0.9921 0.1255 -0.1255 -0.9921 382.3969 380.6148)" fill="#030104" width="3.82" height="0.782"/>
				</g>
			</g>
			<g>
				<g>
					<path fill="#030104" d="M181.675,210.632c-0.054-0.021-5.032-2.06-5.866-2.455l-0.332,0.713c0.851,0.4,5.694,2.385,5.899,2.468
						L181.675,210.632z"/>
				</g>
			</g>
			<g>
				<g>
					<polygon fill="#030104" points="172.725,179.138 172.195,178.55 167.621,182.682 168.146,183.27 					"/>
				</g>
			</g>
			<g>
				<g>
					
						<rect x="176.169" y="169.951" transform="matrix(-0.951 -0.3091 0.3091 -0.951 289.3923 402.2342)" fill="#030104" width="0.783" height="16.482"/>
				</g>
			</g>
		</g>
		<g>
			<path fill="#030104" d="M175.5,249.744l-1.309-1.436c0.149-0.142,15.435-14.5,10.164-33.175l1.867-0.525
				C191.818,234.447,175.667,249.59,175.5,249.744z"/>
		</g>
	</g>
</g>
<g>
	<g>
		<g>
			<path fill="#030104" d="M231.178,171.145h52.51c2.062,0,3.712-1.592,3.712-3.554c0-1.941-1.675-3.53-3.712-3.53h-52.51
				c-2.047,0-3.696,1.588-3.696,3.53C227.481,169.554,229.155,171.145,231.178,171.145z"/>
			<path fill="#030104" d="M278.274,158.652c2.459-12.948,11.682-30.682,11.682-30.682s-39.002-17.791-48.065-9.542
				c-3.657,3.323,5.313,16.008,2.001,19.66c-3.169,3.536-18.967,0-18.967,0s6.086,11.041,8.934,20.564H278.274L278.274,158.652z"/>
			<path fill="#030104" d="M304.335,277.894c-2.063-1.381-5.91-2.894-11.615-4.489v-17.966c3.383,0.117,5.889,1.394,7.414,3.9
				c0.826,1.359,1.33,2.971,1.52,4.842h6.438c-0.129-4.17-1.48-7.525-4.123-10.086c-2.619-2.521-6.347-3.982-11.256-4.318v-4.829
				H289.2v4.901c-4.938,0.058-8.772,1.588-11.521,4.59c-2.75,2.996-4.114,6.353-4.114,10.094c0,4.181,1.28,7.441,3.815,9.818
				c2.551,2.359,6.489,4.033,11.819,5.056v20.108c-4.153-0.349-7.018-1.905-8.551-4.709c-0.879-1.535-1.397-3.992-1.582-7.375
				h-6.551c0,4.237,0.711,7.59,2.092,10.07c2.551,4.602,7.414,7.133,14.576,7.613v7.154h3.527v-7.154
				c4.445-0.496,7.85-1.52,10.201-3.031c4.262-2.764,6.385-7.414,6.385-13.927C309.306,283.629,307.64,280.216,304.335,277.894z
				 M289.208,272.718c-2.748-0.564-4.939-1.52-6.566-2.879c-1.627-1.373-2.451-3.283-2.451-5.715c0-2.035,0.695-3.959,2.076-5.799
				c1.367-1.855,3.682-2.844,6.934-2.939v17.332H289.208z M301.409,295.095c-1.588,2.875-4.482,4.42-8.689,4.607V280.3
				c3.063,0.836,5.262,1.729,6.566,2.657c2.262,1.604,3.383,3.94,3.383,7.04C302.661,291.906,302.265,293.62,301.409,295.095z"/>
		</g>
		<path fill="#030104" d="M285.321,176.376c-0.526,0.103-1.067,0.172-1.633,0.172h-52.51c-0.955,0-1.833-0.191-2.688-0.445
			c-28.166,26.81-46.303,63.923-53.14,93.938c4.903-1.302,10.317-2.042,16.089-2.042c16.203,0,29.76,5.604,36.325,13.87l0.106-0.412
			l0.168,0.706c2.488,3.275,4,6.914,4,10.843c0,0.565-0.075,1.099-0.159,1.665h0.214v69.04c8.154,2.345,16.684,3.644,25.334,3.644
			c44.064,0,85.221-32.661,85.221-72.965C342.649,262.593,322.292,215.306,285.321,176.376z M282.542,321.032
			c-23.402,0-42.416-18.994-42.416-42.423c0-23.407,18.99-42.414,42.416-42.414c23.41,0,42.424,18.991,42.424,42.414
			C324.966,302.038,305.976,321.032,282.542,321.032z"/>
		<g>
			<g>
				<g enable-background="new    ">
					<g>
						<path fill="#030104" d="M201.247,287.126c-2.639,0-4.668,0.58-6.045,1.719c-0.819,0.625-1.578,1.729-2.31,3.244h16.81
							c-0.183-2.084-1.483-3.535-3.998-4.328C204.454,287.332,202.954,287.126,201.247,287.126"/>
						<path fill="#030104" d="M186.286,293.86h-15.021c0.123,1.604,0.951,2.764,2.563,3.459c1.605,0.691,3.275,1,5.029,1
							c2.101,0,3.745-0.389,4.931-1.215C185.011,296.312,185.84,295.22,186.286,293.86"/>
						<path fill="#030104" d="M171.347,292.104h15.571c1.368-2.848,2.692-4.766,3.891-5.797c2.011-1.656,4.976-2.478,8.904-2.478
							c5.681,0,9.696,1.05,12.091,3.195c1.323,1.184,2.193,2.862,2.621,5.104h6.208v1.745h-6.208
							c-0.412,3.573-2.598,5.994-6.604,7.262c-2.156,0.703-5.059,1.045-8.718,1.045v-3.268c2.913-0.104,5.027-0.344,6.368-0.786
							c2.424-0.764,3.771-2.184,4.073-4.253H192.12c-0.881,2.653-2.354,4.635-4.373,5.887c-2.077,1.283-4.887,1.891-8.517,1.891
							c-3.256,0-6.181-0.66-8.771-2.042c-2.583-1.359-3.925-3.269-3.984-5.734h-4.245v-1.745h4.199
							c0.306-2.443,1.552-4.31,3.745-5.635c2.205-1.302,5.113-1.979,8.715-2.05v3.229c-1.631,0.096-3.025,0.336-4.191,0.765
							C172.57,289.172,171.429,290.417,171.347,292.104 M191.438,271.851c-20.305,0-36.744,9.465-36.744,21.136
							c0,11.663,16.454,21.135,36.744,21.135c20.293,0,36.73-9.472,36.73-21.135C228.17,281.315,211.72,271.851,191.438,271.851"/>
					</g>
				</g>
				<path fill="#030104" d="M191.438,316.954c-18.637,0-33.977-7.99-36.37-18.32c-0.198,0.932-0.374,1.875-0.374,2.84
					c0,11.666,16.454,21.135,36.744,21.135c20.293,0,36.73-9.469,36.73-21.135c0-0.955-0.16-1.91-0.352-2.84
					C225.413,308.964,210.067,316.954,191.438,316.954z"/>
				<path fill="#030104" d="M191.438,325.449c-18.637,0-33.977-7.972-36.37-18.329c-0.198,0.943-0.374,1.863-0.374,2.836
					c0,11.671,16.454,21.15,36.744,21.15c20.293,0,36.73-9.479,36.73-21.15c0-0.947-0.16-1.886-0.352-2.836
					C225.413,317.478,210.067,325.449,191.438,325.449z"/>
				<path fill="#030104" d="M191.438,333.947c-18.637,0-33.977-7.995-36.37-18.333c-0.198,0.924-0.374,1.871-0.374,2.833
					c0,11.675,16.454,21.135,36.744,21.135c20.293,0,36.73-9.46,36.73-21.135c0-0.938-0.16-1.909-0.352-2.833
					C225.413,325.952,210.067,333.947,191.438,333.947z"/>
				<path fill="#030104" d="M191.438,342.392c-18.637,0-33.977-7.972-36.37-18.321c-0.198,0.942-0.374,1.875-0.374,2.845
					c0,11.674,16.454,21.127,36.744,21.127c20.293,0,36.73-9.453,36.73-21.127c0-0.962-0.16-1.895-0.352-2.845
					C225.413,334.42,210.067,342.392,191.438,342.392z"/>
				<path fill="#030104" d="M191.438,352.142c-18.637,0-33.977-7.99-36.37-18.324c-0.198,0.924-0.374,1.871-0.374,2.836
					c0,11.675,16.454,21.135,36.744,21.135c20.293,0,36.73-9.46,36.73-21.135c0-0.943-0.16-1.905-0.352-2.836
					C225.413,344.151,210.067,352.142,191.438,352.142z"/>
				<path fill="#030104" d="M191.438,360.626c-18.637,0-33.977-7.972-36.37-18.318c-0.198,0.933-0.374,1.863-0.374,2.818
					c0,11.682,16.454,21.154,36.744,21.154c20.293,0,36.73-9.473,36.73-21.154c0-0.939-0.16-1.879-0.352-2.818
					C225.413,352.654,210.067,360.626,191.438,360.626z"/>
				<path fill="#030104" d="M191.438,369.116c-18.637,0-33.977-8.018-36.37-18.34c-0.198,0.924-0.374,1.869-0.374,2.832
					c0,11.667,16.454,21.136,36.744,21.136c20.293,0,36.73-9.469,36.73-21.136c0-0.946-0.16-1.901-0.352-2.832
					C225.413,361.099,210.067,369.116,191.438,369.116z"/>
				<path fill="#030104" d="M191.438,377.593c-18.637,0-33.977-7.986-36.37-18.33c-0.198,0.937-0.374,1.875-0.374,2.83
					c0,11.683,16.454,21.149,36.744,21.149c20.293,0,36.73-9.468,36.73-21.149c0-0.947-0.16-1.887-0.352-2.83
					C225.413,369.604,210.067,377.593,191.438,377.593z"/>
			</g>
			<g>
				<g enable-background="new    ">
					<g>
						<path fill="#030104" d="M123.148,307.806c-2.642,0-4.689,0.569-6.047,1.715c-0.832,0.634-1.583,1.726-2.335,3.244h16.835
							c-0.191-2.084-1.508-3.531-4-4.332C126.319,308.024,124.83,307.806,123.148,307.806"/>
						<path fill="#030104" d="M108.196,314.537H93.175c0.107,1.606,0.951,2.765,2.546,3.466c1.602,0.676,3.268,1.016,5.034,1.016
							c2.119,0,3.742-0.396,4.942-1.221C106.898,317.004,107.726,315.908,108.196,314.537"/>
						<path fill="#030104" d="M93.226,312.767h15.567c1.403-2.836,2.701-4.758,3.901-5.795c2.007-1.658,5.004-2.475,8.909-2.475
							c5.673,0,9.695,1.038,12.073,3.184c1.333,1.176,2.189,2.871,2.639,5.086h6.188v1.764h-6.188
							c-0.422,3.551-2.604,5.975-6.61,7.258c-2.142,0.688-5.059,1.057-8.722,1.057v-3.268c2.92-0.107,5.043-0.374,6.383-0.787
							c2.409-0.779,3.749-2.184,4.055-4.268h-17.413c-0.862,2.648-2.346,4.627-4.375,5.902c-2.048,1.274-4.881,1.889-8.499,1.889
							c-3.249,0-6.185-0.668-8.777-2.057c-2.596-1.341-3.937-3.254-3.971-5.734H84.12v-1.756h4.2
							c0.305-2.437,1.563-4.299,3.745-5.602c2.212-1.32,5.118-2,8.722-2.064v3.232c-1.634,0.084-3.022,0.34-4.192,0.756
							C94.481,309.865,93.339,311.117,93.226,312.767 M113.321,292.528c-20.289,0-36.729,9.472-36.729,21.154
							c0,11.674,16.443,21.127,36.729,21.127c20.328,0,36.745-9.453,36.745-21.127C150.073,302,133.645,292.528,113.321,292.528"/>
					</g>
				</g>
				<path fill="#030104" d="M113.321,337.654c-18.628,0-33.953-7.991-36.354-18.325c-0.21,0.936-0.374,1.871-0.374,2.825
					c0,11.683,16.443,21.144,36.729,21.144c20.328,0,36.745-9.461,36.745-21.144c0-0.947-0.165-1.89-0.355-2.825
					C147.305,329.663,131.977,337.654,113.321,337.654z"/>
				<path fill="#030104" d="M113.321,346.142c-18.628,0-33.953-7.987-36.354-18.33c-0.21,0.943-0.374,1.875-0.374,2.816
					c0,11.702,16.443,21.162,36.729,21.162c20.328,0,36.745-9.46,36.745-21.162c0-0.943-0.165-1.875-0.355-2.816
					C147.305,338.154,131.977,346.142,113.321,346.142z"/>
			</g>
		</g>
	</g>
</g>
</svg>
