<?xml version="1.0" encoding="utf-8"?>
<!-- Generator: Adobe Illustrator 16.0.0, SVG Export Plug-In . SVG Version: 6.00 Build 0)  -->
<!DOCTYPE svg PUBLIC "-//W3C//DTD SVG 1.1//EN" "http://www.w3.org/Graphics/SVG/1.1/DTD/svg11.dtd">
<svg version="1.1" id="Capa_1" xmlns="http://www.w3.org/2000/svg" xmlns:xlink="http://www.w3.org/1999/xlink" x="0px" y="0px"
	 width="595.281px" height="841.89px" viewBox="0 0 595.281 841.89" enable-background="new 0 0 595.281 841.89"
	 xml:space="preserve">
<path fill="#FFFFFF" d="M478.398,421.541v-95.731c0-57.924-17.459-108.29-51.352-145.646
	c-33.26-36.666-78.832-56.859-128.727-56.859c-49.895,0-96.033,20.193-129.295,56.859c-33.89,37.356-52.143,87.721-52.143,145.646
	v95.731c-19.027,5.893-35.336,24.672-35.336,46.973v201.145c0,27.021,22.811,48.928,49.832,48.928h334.335
	c27.021,0,48.023-21.906,48.023-48.928V468.513C513.736,446.212,500.144,427.433,478.398,421.541z M296.507,605.328
	c-20.017,0-36.242-16.229-36.242-36.242c0-20.016,16.225-36.242,36.242-36.242c20.016,0,36.241,16.229,36.241,36.242
	C332.751,589.103,316.523,605.328,296.507,605.328z M410.445,419.586H184.836v-93.777c0-79.221,46.386-134.55,112.804-134.55
	c66.418,0,112.805,55.329,112.805,134.55V419.586z"/>
</svg>
