<?xml version="1.0" encoding="utf-8"?>
<!-- Generator: Adobe Illustrator 16.0.0, SVG Export Plug-In . SVG Version: 6.00 Build 0)  -->
<!DOCTYPE svg PUBLIC "-//W3C//DTD SVG 1.1//EN" "http://www.w3.org/Graphics/SVG/1.1/DTD/svg11.dtd">
<svg version="1.1" id="Capa_1" xmlns="http://www.w3.org/2000/svg" xmlns:xlink="http://www.w3.org/1999/xlink" x="0px" y="0px"
	 width="1048.053px" height="35.999px" viewBox="0 0 1048.053 35.999" enable-background="new 0 0 1048.053 35.999"
	 xml:space="preserve">
<g>
	<path fill="#242A30" d="M29.951,15.844c-0.138,0.271-0.24,0.504-0.37,0.72C28.155,18.938,27.114,21.5,25.946,24
		c-0.244,0.521-0.48,1.064-0.824,1.518c-0.586,0.771-1.338,0.752-1.898-0.045c-0.329-0.467-0.548-1.014-0.792-1.537
		c-1.066-2.271-2.264-4.463-3.753-6.493c-0.964-1.314-0.961-1.398-0.037-2.713c0.886-1.259,1.807-2.5,2.793-3.681
		c0.869-1.04,1.526-1.146,2.691-0.422c2.029,1.262,3.636,3.05,5.464,4.564C29.766,15.337,29.831,15.618,29.951,15.844z"/>
	<path fill="#242A30" d="M37.414,18.39c-1.32-0.06-2.436-1.228-2.396-2.506c0.039-1.226,1.061-2.246,2.176-2.174
		c1.328,0.086,2.589,1.255,2.578,2.388C39.758,17.308,38.59,18.443,37.414,18.39z"/>
	<path fill="#242A30" d="M57.969,15.92c-0.139,0.271-0.24,0.504-0.37,0.72c-1.426,2.374-2.468,4.936-3.636,7.436
		c-0.244,0.521-0.479,1.064-0.824,1.518c-0.586,0.771-1.338,0.752-1.898-0.045c-0.329-0.467-0.547-1.014-0.792-1.537
		c-1.066-2.271-2.264-4.463-3.753-6.493c-0.964-1.314-0.961-1.398-0.037-2.713c0.886-1.259,1.807-2.5,2.794-3.681
		c0.869-1.04,1.525-1.146,2.691-0.422c2.029,1.262,3.635,3.05,5.463,4.564C57.783,15.413,57.848,15.694,57.969,15.92z"/>
	<path fill="#242A30" d="M65.431,18.466c-1.32-0.06-2.436-1.228-2.395-2.506c0.039-1.225,1.06-2.246,2.175-2.173
		c1.328,0.086,2.59,1.255,2.578,2.388C67.776,17.384,66.607,18.52,65.431,18.466z"/>
	<path fill="#242A30" d="M57.969,15.92c-0.139,0.271-0.24,0.504-0.37,0.72c-1.426,2.374-2.468,4.936-3.636,7.436
		c-0.244,0.521-0.479,1.064-0.824,1.518c-0.586,0.771-1.338,0.752-1.898-0.045c-0.329-0.467-0.547-1.014-0.792-1.537
		c-1.066-2.271-2.264-4.463-3.753-6.493c-0.964-1.314-0.961-1.398-0.037-2.713c0.886-1.259,1.807-2.5,2.794-3.681
		c0.869-1.04,1.525-1.146,2.691-0.422c2.029,1.262,3.635,3.05,5.463,4.564C57.783,15.413,57.848,15.694,57.969,15.92z"/>
	<path fill="#242A30" d="M65.431,18.466c-1.32-0.06-2.436-1.228-2.395-2.506c0.039-1.225,1.06-2.246,2.175-2.173
		c1.328,0.086,2.59,1.255,2.578,2.388C67.776,17.384,66.607,18.52,65.431,18.466z"/>
	<path fill="#242A30" d="M85.987,15.997c-0.138,0.271-0.24,0.504-0.37,0.72c-1.426,2.374-2.468,4.936-3.635,7.436
		c-0.244,0.521-0.48,1.064-0.825,1.518c-0.586,0.771-1.337,0.752-1.898-0.045c-0.329-0.467-0.547-1.014-0.792-1.537
		c-1.066-2.271-2.264-4.463-3.753-6.493c-0.964-1.314-0.961-1.399-0.037-2.713c0.886-1.259,1.807-2.5,2.794-3.681
		c0.869-1.04,1.525-1.146,2.691-0.422c2.029,1.262,3.635,3.05,5.464,4.564C85.801,15.489,85.866,15.771,85.987,15.997z"/>
	<path fill="#242A30" d="M93.449,18.542c-1.32-0.061-2.436-1.228-2.395-2.506c0.039-1.225,1.06-2.246,2.175-2.173
		c1.328,0.086,2.59,1.255,2.578,2.388C95.794,17.46,94.625,18.596,93.449,18.542z"/>
	<path fill="#242A30" d="M85.987,15.997c-0.138,0.271-0.24,0.504-0.37,0.72c-1.426,2.374-2.468,4.936-3.635,7.436
		c-0.244,0.521-0.48,1.064-0.825,1.518c-0.586,0.771-1.337,0.752-1.898-0.045c-0.329-0.467-0.547-1.014-0.792-1.537
		c-1.066-2.271-2.264-4.463-3.753-6.493c-0.964-1.314-0.961-1.399-0.037-2.713c0.886-1.259,1.807-2.5,2.794-3.681
		c0.869-1.04,1.525-1.146,2.691-0.422c2.029,1.262,3.635,3.05,5.464,4.564C85.801,15.489,85.866,15.771,85.987,15.997z"/>
	<path fill="#242A30" d="M93.449,18.542c-1.32-0.061-2.436-1.228-2.395-2.506c0.039-1.225,1.06-2.246,2.175-2.173
		c1.328,0.086,2.59,1.255,2.578,2.388C95.794,17.46,94.625,18.596,93.449,18.542z"/>
	<path fill="#242A30" d="M114.004,16.072c-0.138,0.271-0.24,0.504-0.369,0.72c-1.427,2.374-2.469,4.937-3.636,7.437
		c-0.244,0.521-0.479,1.064-0.825,1.518c-0.585,0.771-1.337,0.752-1.898-0.045c-0.329-0.467-0.547-1.014-0.792-1.537
		c-1.066-2.271-2.264-4.463-3.753-6.493c-0.964-1.315-0.961-1.399-0.037-2.713c0.886-1.26,1.807-2.5,2.794-3.681
		c0.869-1.04,1.525-1.146,2.691-0.422c2.029,1.262,3.635,3.05,5.464,4.564C113.818,15.565,113.884,15.847,114.004,16.072z"/>
	<path fill="#242A30" d="M121.467,18.618c-1.32-0.061-2.436-1.228-2.396-2.506c0.038-1.225,1.061-2.246,2.175-2.173
		c1.328,0.086,2.59,1.255,2.578,2.388C123.812,17.536,122.643,18.672,121.467,18.618z"/>
	<path fill="#242A30" d="M114.004,16.072c-0.138,0.271-0.24,0.504-0.369,0.72c-1.427,2.374-2.469,4.937-3.636,7.437
		c-0.244,0.521-0.479,1.064-0.825,1.518c-0.585,0.771-1.337,0.752-1.898-0.045c-0.329-0.467-0.547-1.014-0.792-1.537
		c-1.066-2.271-2.264-4.463-3.753-6.493c-0.964-1.315-0.961-1.399-0.037-2.713c0.886-1.26,1.807-2.5,2.794-3.681
		c0.869-1.04,1.525-1.146,2.691-0.422c2.029,1.262,3.635,3.05,5.464,4.564C113.818,15.565,113.884,15.847,114.004,16.072z"/>
	<path fill="#242A30" d="M121.467,18.618c-1.32-0.061-2.436-1.228-2.396-2.506c0.038-1.225,1.061-2.246,2.175-2.173
		c1.328,0.086,2.59,1.255,2.578,2.388C123.812,17.536,122.643,18.672,121.467,18.618z"/>
	<path fill="#242A30" d="M142.021,16.148c-0.138,0.271-0.24,0.504-0.369,0.72c-1.427,2.374-2.468,4.937-3.636,7.437
		c-0.244,0.521-0.479,1.064-0.825,1.518c-0.585,0.771-1.337,0.752-1.897-0.045c-0.329-0.467-0.548-1.014-0.793-1.537
		c-1.065-2.271-2.264-4.463-3.753-6.494c-0.965-1.314-0.961-1.398-0.037-2.713c0.886-1.259,1.807-2.5,2.794-3.681
		c0.868-1.04,1.525-1.147,2.69-0.422c2.029,1.262,3.636,3.05,5.465,4.564C141.836,15.641,141.901,15.922,142.021,16.148z"/>
	<path fill="#242A30" d="M149.484,18.694c-1.32-0.061-2.436-1.228-2.396-2.506c0.039-1.225,1.061-2.246,2.175-2.173
		c1.328,0.086,2.59,1.255,2.578,2.388C151.829,17.612,150.66,18.748,149.484,18.694z"/>
	<path fill="#242A30" d="M142.021,16.148c-0.138,0.271-0.24,0.504-0.369,0.72c-1.427,2.374-2.468,4.937-3.636,7.437
		c-0.244,0.521-0.479,1.064-0.825,1.518c-0.585,0.771-1.337,0.752-1.897-0.045c-0.329-0.467-0.548-1.014-0.793-1.537
		c-1.065-2.271-2.264-4.463-3.753-6.494c-0.965-1.314-0.961-1.398-0.037-2.713c0.886-1.259,1.807-2.5,2.794-3.681
		c0.868-1.04,1.525-1.147,2.69-0.422c2.029,1.262,3.636,3.05,5.465,4.564C141.836,15.641,141.901,15.922,142.021,16.148z"/>
	<path fill="#242A30" d="M149.484,18.694c-1.32-0.061-2.436-1.228-2.396-2.506c0.039-1.225,1.061-2.246,2.175-2.173
		c1.328,0.086,2.59,1.255,2.578,2.388C151.829,17.612,150.66,18.748,149.484,18.694z"/>
	<path fill="#242A30" d="M170.039,16.225c-0.138,0.271-0.24,0.504-0.369,0.72c-1.427,2.374-2.468,4.937-3.636,7.437
		c-0.243,0.521-0.479,1.064-0.825,1.518c-0.585,0.771-1.337,0.752-1.897-0.045c-0.329-0.467-0.548-1.014-0.793-1.537
		c-1.065-2.271-2.264-4.463-3.753-6.494c-0.965-1.314-0.961-1.398-0.037-2.713c0.887-1.26,1.807-2.5,2.794-3.681
		c0.869-1.04,1.525-1.147,2.69-0.422c2.029,1.262,3.637,3.05,5.465,4.563C169.854,15.717,169.919,15.999,170.039,16.225z"/>
	<path fill="#242A30" d="M177.502,18.771c-1.32-0.061-2.436-1.228-2.396-2.506c0.039-1.225,1.061-2.246,2.176-2.173
		c1.327,0.086,2.589,1.255,2.577,2.388C179.847,17.688,178.678,18.824,177.502,18.771z"/>
	<path fill="#242A30" d="M170.039,16.225c-0.138,0.271-0.24,0.504-0.369,0.72c-1.427,2.374-2.468,4.937-3.636,7.437
		c-0.243,0.521-0.479,1.064-0.825,1.518c-0.585,0.771-1.337,0.752-1.897-0.045c-0.329-0.467-0.548-1.014-0.793-1.537
		c-1.065-2.271-2.264-4.463-3.753-6.494c-0.965-1.314-0.961-1.398-0.037-2.713c0.887-1.26,1.807-2.5,2.794-3.681
		c0.869-1.04,1.525-1.147,2.69-0.422c2.029,1.262,3.637,3.05,5.465,4.563C169.854,15.717,169.919,15.999,170.039,16.225z"/>
	<path fill="#242A30" d="M177.502,18.771c-1.32-0.061-2.436-1.228-2.396-2.506c0.039-1.225,1.061-2.246,2.176-2.173
		c1.327,0.086,2.589,1.255,2.577,2.388C179.847,17.688,178.678,18.824,177.502,18.771z"/>
	<path fill="#242A30" d="M198.058,16.301c-0.139,0.271-0.24,0.504-0.37,0.72c-1.426,2.374-2.468,4.937-3.636,7.437
		c-0.243,0.521-0.479,1.064-0.824,1.518c-0.586,0.771-1.338,0.752-1.898-0.045c-0.329-0.467-0.548-1.014-0.792-1.537
		c-1.066-2.271-2.265-4.463-3.754-6.494c-0.965-1.314-0.961-1.398-0.037-2.713c0.887-1.26,1.807-2.5,2.795-3.681
		c0.868-1.04,1.525-1.147,2.69-0.422c2.028,1.262,3.636,3.05,5.464,4.563C197.871,15.793,197.937,16.075,198.058,16.301z"/>
</g>
<g>
	<path fill="#242A30" d="M198.057,15.844c-0.138,0.271-0.24,0.504-0.37,0.72c-1.426,2.374-2.467,4.936-3.635,7.436
		c-0.244,0.521-0.48,1.064-0.824,1.518c-0.586,0.771-1.338,0.752-1.898-0.045c-0.329-0.467-0.548-1.014-0.792-1.537
		c-1.066-2.271-2.264-4.463-3.753-6.493c-0.964-1.314-0.961-1.398-0.037-2.713c0.886-1.259,1.807-2.5,2.793-3.681
		c0.869-1.04,1.526-1.146,2.691-0.422c2.029,1.262,3.636,3.05,5.464,4.564C197.871,15.337,197.936,15.618,198.057,15.844z"/>
	<path fill="#242A30" d="M205.519,18.39c-1.32-0.06-2.436-1.228-2.396-2.506c0.039-1.226,1.061-2.246,2.176-2.174
		c1.328,0.086,2.589,1.255,2.578,2.388C207.864,17.308,206.695,18.443,205.519,18.39z"/>
	<path fill="#242A30" d="M226.075,15.92c-0.139,0.271-0.24,0.504-0.37,0.72c-1.426,2.374-2.468,4.936-3.636,7.436
		c-0.244,0.521-0.479,1.064-0.824,1.518c-0.586,0.771-1.338,0.752-1.898-0.045c-0.329-0.467-0.547-1.014-0.792-1.537
		c-1.066-2.271-2.264-4.463-3.753-6.493c-0.964-1.314-0.961-1.398-0.037-2.713c0.886-1.259,1.807-2.5,2.794-3.681
		c0.869-1.04,1.525-1.146,2.691-0.422c2.029,1.262,3.635,3.05,5.463,4.564C225.889,15.413,225.954,15.694,226.075,15.92z"/>
	<path fill="#242A30" d="M233.537,18.466c-1.32-0.06-2.436-1.228-2.395-2.506c0.039-1.225,1.06-2.246,2.175-2.173
		c1.328,0.086,2.59,1.255,2.578,2.388C235.882,17.384,234.713,18.52,233.537,18.466z"/>
	<path fill="#242A30" d="M226.075,15.92c-0.139,0.271-0.24,0.504-0.37,0.72c-1.426,2.374-2.468,4.936-3.636,7.436
		c-0.244,0.521-0.479,1.064-0.824,1.518c-0.586,0.771-1.338,0.752-1.898-0.045c-0.329-0.467-0.547-1.014-0.792-1.537
		c-1.066-2.271-2.264-4.463-3.753-6.493c-0.964-1.314-0.961-1.398-0.037-2.713c0.886-1.259,1.807-2.5,2.794-3.681
		c0.869-1.04,1.525-1.146,2.691-0.422c2.029,1.262,3.635,3.05,5.463,4.564C225.889,15.413,225.954,15.694,226.075,15.92z"/>
	<path fill="#242A30" d="M233.537,18.466c-1.32-0.06-2.436-1.228-2.395-2.506c0.039-1.225,1.06-2.246,2.175-2.173
		c1.328,0.086,2.59,1.255,2.578,2.388C235.882,17.384,234.713,18.52,233.537,18.466z"/>
	<path fill="#242A30" d="M254.092,15.997c-0.138,0.271-0.24,0.504-0.37,0.72c-1.426,2.374-2.468,4.936-3.635,7.436
		c-0.244,0.521-0.48,1.064-0.825,1.518c-0.586,0.771-1.337,0.752-1.898-0.045c-0.329-0.467-0.547-1.014-0.792-1.537
		c-1.066-2.271-2.264-4.463-3.753-6.493c-0.964-1.314-0.961-1.399-0.037-2.713c0.886-1.259,1.807-2.5,2.794-3.681
		c0.869-1.04,1.525-1.146,2.691-0.422c2.029,1.262,3.635,3.05,5.464,4.564C253.906,15.489,253.972,15.771,254.092,15.997z"/>
	<path fill="#242A30" d="M261.554,18.542c-1.32-0.061-2.436-1.228-2.395-2.506c0.039-1.225,1.06-2.246,2.175-2.173
		c1.328,0.086,2.59,1.255,2.578,2.388C263.899,17.46,262.73,18.596,261.554,18.542z"/>
	<path fill="#242A30" d="M254.092,15.997c-0.138,0.271-0.24,0.504-0.37,0.72c-1.426,2.374-2.468,4.936-3.635,7.436
		c-0.244,0.521-0.48,1.064-0.825,1.518c-0.586,0.771-1.337,0.752-1.898-0.045c-0.329-0.467-0.547-1.014-0.792-1.537
		c-1.066-2.271-2.264-4.463-3.753-6.493c-0.964-1.314-0.961-1.399-0.037-2.713c0.886-1.259,1.807-2.5,2.794-3.681
		c0.869-1.04,1.525-1.146,2.691-0.422c2.029,1.262,3.635,3.05,5.464,4.564C253.906,15.489,253.972,15.771,254.092,15.997z"/>
	<path fill="#242A30" d="M261.554,18.542c-1.32-0.061-2.436-1.228-2.395-2.506c0.039-1.225,1.06-2.246,2.175-2.173
		c1.328,0.086,2.59,1.255,2.578,2.388C263.899,17.46,262.73,18.596,261.554,18.542z"/>
	<path fill="#242A30" d="M282.109,16.072c-0.138,0.271-0.24,0.504-0.369,0.72c-1.427,2.374-2.469,4.937-3.636,7.437
		c-0.244,0.521-0.479,1.064-0.825,1.518c-0.585,0.771-1.337,0.752-1.898-0.045c-0.329-0.467-0.547-1.014-0.792-1.537
		c-1.066-2.271-2.264-4.463-3.753-6.493c-0.964-1.315-0.961-1.399-0.037-2.713c0.886-1.26,1.807-2.5,2.794-3.681
		c0.869-1.04,1.525-1.146,2.691-0.422c2.029,1.262,3.635,3.05,5.464,4.564C281.924,15.565,281.989,15.847,282.109,16.072z"/>
	<path fill="#242A30" d="M289.572,18.618c-1.32-0.061-2.436-1.228-2.396-2.506c0.038-1.225,1.061-2.246,2.175-2.173
		c1.328,0.086,2.59,1.255,2.578,2.388C291.917,17.536,290.748,18.672,289.572,18.618z"/>
	<path fill="#242A30" d="M282.109,16.072c-0.138,0.271-0.24,0.504-0.369,0.72c-1.427,2.374-2.469,4.937-3.636,7.437
		c-0.244,0.521-0.479,1.064-0.825,1.518c-0.585,0.771-1.337,0.752-1.898-0.045c-0.329-0.467-0.547-1.014-0.792-1.537
		c-1.066-2.271-2.264-4.463-3.753-6.493c-0.964-1.315-0.961-1.399-0.037-2.713c0.886-1.26,1.807-2.5,2.794-3.681
		c0.869-1.04,1.525-1.146,2.691-0.422c2.029,1.262,3.635,3.05,5.464,4.564C281.924,15.565,281.989,15.847,282.109,16.072z"/>
	<path fill="#242A30" d="M289.572,18.618c-1.32-0.061-2.436-1.228-2.396-2.506c0.038-1.225,1.061-2.246,2.175-2.173
		c1.328,0.086,2.59,1.255,2.578,2.388C291.917,17.536,290.748,18.672,289.572,18.618z"/>
	<path fill="#242A30" d="M310.127,16.148c-0.138,0.271-0.24,0.504-0.369,0.72c-1.427,2.374-2.468,4.937-3.636,7.437
		c-0.244,0.521-0.479,1.064-0.825,1.518c-0.585,0.771-1.337,0.752-1.897-0.045c-0.329-0.467-0.548-1.014-0.793-1.537
		c-1.065-2.271-2.264-4.463-3.753-6.494c-0.965-1.314-0.961-1.398-0.037-2.713c0.886-1.259,1.807-2.5,2.794-3.681
		c0.868-1.04,1.525-1.147,2.69-0.422c2.029,1.262,3.636,3.05,5.465,4.564C309.941,15.641,310.007,15.922,310.127,16.148z"/>
	<path fill="#242A30" d="M317.59,18.694c-1.32-0.061-2.436-1.228-2.396-2.506c0.039-1.225,1.061-2.246,2.175-2.173
		c1.328,0.086,2.59,1.255,2.578,2.388C319.935,17.612,318.766,18.748,317.59,18.694z"/>
	<path fill="#242A30" d="M310.127,16.148c-0.138,0.271-0.24,0.504-0.369,0.72c-1.427,2.374-2.468,4.937-3.636,7.437
		c-0.244,0.521-0.479,1.064-0.825,1.518c-0.585,0.771-1.337,0.752-1.897-0.045c-0.329-0.467-0.548-1.014-0.793-1.537
		c-1.065-2.271-2.264-4.463-3.753-6.494c-0.965-1.314-0.961-1.398-0.037-2.713c0.886-1.259,1.807-2.5,2.794-3.681
		c0.868-1.04,1.525-1.147,2.69-0.422c2.029,1.262,3.636,3.05,5.465,4.564C309.941,15.641,310.007,15.922,310.127,16.148z"/>
	<path fill="#242A30" d="M317.59,18.694c-1.32-0.061-2.436-1.228-2.396-2.506c0.039-1.225,1.061-2.246,2.175-2.173
		c1.328,0.086,2.59,1.255,2.578,2.388C319.935,17.612,318.766,18.748,317.59,18.694z"/>
	<path fill="#242A30" d="M338.145,16.225c-0.138,0.271-0.24,0.504-0.369,0.72c-1.427,2.374-2.468,4.937-3.636,7.437
		c-0.243,0.521-0.479,1.064-0.825,1.518c-0.585,0.771-1.337,0.752-1.897-0.045c-0.329-0.467-0.548-1.014-0.793-1.537
		c-1.065-2.271-2.264-4.463-3.753-6.494c-0.965-1.314-0.961-1.398-0.037-2.713c0.887-1.26,1.807-2.5,2.794-3.681
		c0.869-1.04,1.525-1.147,2.69-0.422c2.029,1.262,3.637,3.05,5.465,4.563C337.959,15.717,338.024,15.999,338.145,16.225z"/>
	<path fill="#242A30" d="M345.607,18.771c-1.32-0.061-2.436-1.228-2.396-2.506c0.039-1.225,1.061-2.246,2.176-2.173
		c1.327,0.086,2.589,1.255,2.577,2.388C347.952,17.688,346.783,18.824,345.607,18.771z"/>
	<path fill="#242A30" d="M338.145,16.225c-0.138,0.271-0.24,0.504-0.369,0.72c-1.427,2.374-2.468,4.937-3.636,7.437
		c-0.243,0.521-0.479,1.064-0.825,1.518c-0.585,0.771-1.337,0.752-1.897-0.045c-0.329-0.467-0.548-1.014-0.793-1.537
		c-1.065-2.271-2.264-4.463-3.753-6.494c-0.965-1.314-0.961-1.398-0.037-2.713c0.887-1.26,1.807-2.5,2.794-3.681
		c0.869-1.04,1.525-1.147,2.69-0.422c2.029,1.262,3.637,3.05,5.465,4.563C337.959,15.717,338.024,15.999,338.145,16.225z"/>
	<path fill="#242A30" d="M345.607,18.771c-1.32-0.061-2.436-1.228-2.396-2.506c0.039-1.225,1.061-2.246,2.176-2.173
		c1.327,0.086,2.589,1.255,2.577,2.388C347.952,17.688,346.783,18.824,345.607,18.771z"/>
	<path fill="#242A30" d="M366.163,16.301c-0.139,0.271-0.24,0.504-0.37,0.72c-1.426,2.374-2.468,4.937-3.636,7.437
		c-0.243,0.521-0.479,1.064-0.824,1.518c-0.586,0.771-1.338,0.752-1.898-0.045c-0.329-0.467-0.548-1.014-0.792-1.537
		c-1.066-2.271-2.265-4.463-3.754-6.494c-0.965-1.314-0.961-1.398-0.037-2.713c0.887-1.26,1.807-2.5,2.795-3.681
		c0.868-1.04,1.525-1.147,2.69-0.422c2.028,1.262,3.636,3.05,5.464,4.563C365.977,15.793,366.042,16.075,366.163,16.301z"/>
</g>
<g>
	<path fill="#242A30" d="M366.162,15.844c-0.139,0.271-0.24,0.504-0.37,0.72c-1.426,2.374-2.468,4.936-3.636,7.436
		c-0.243,0.521-0.479,1.064-0.824,1.518c-0.586,0.771-1.338,0.752-1.898-0.045c-0.328-0.467-0.547-1.014-0.792-1.537
		c-1.066-2.271-2.265-4.463-3.753-6.493c-0.965-1.314-0.962-1.398-0.037-2.713c0.886-1.259,1.807-2.5,2.793-3.681
		c0.869-1.04,1.526-1.146,2.691-0.422c2.029,1.262,3.636,3.05,5.464,4.564C365.977,15.337,366.041,15.618,366.162,15.844z"/>
	<path fill="#242A30" d="M373.625,18.39c-1.32-0.06-2.436-1.228-2.396-2.506c0.039-1.226,1.061-2.246,2.176-2.174
		c1.328,0.086,2.59,1.255,2.578,2.388C375.969,17.308,374.801,18.443,373.625,18.39z"/>
	<path fill="#242A30" d="M394.18,15.92c-0.139,0.271-0.24,0.504-0.369,0.72c-1.427,2.374-2.469,4.936-3.637,7.436
		c-0.243,0.521-0.479,1.064-0.824,1.518c-0.586,0.771-1.338,0.752-1.898-0.045c-0.328-0.467-0.547-1.014-0.792-1.537
		c-1.065-2.271-2.264-4.463-3.753-6.493c-0.965-1.314-0.962-1.398-0.037-2.713c0.886-1.259,1.807-2.5,2.794-3.681
		c0.868-1.04,1.525-1.146,2.69-0.422c2.029,1.262,3.636,3.05,5.464,4.564C393.994,15.413,394.059,15.694,394.18,15.92z"/>
	<path fill="#242A30" d="M401.643,18.466c-1.32-0.06-2.436-1.228-2.396-2.506c0.038-1.225,1.06-2.246,2.175-2.173
		c1.328,0.086,2.59,1.255,2.578,2.388C403.987,17.384,402.818,18.52,401.643,18.466z"/>
	<path fill="#242A30" d="M394.18,15.92c-0.139,0.271-0.24,0.504-0.369,0.72c-1.427,2.374-2.469,4.936-3.637,7.436
		c-0.243,0.521-0.479,1.064-0.824,1.518c-0.586,0.771-1.338,0.752-1.898-0.045c-0.328-0.467-0.547-1.014-0.792-1.537
		c-1.065-2.271-2.264-4.463-3.753-6.493c-0.965-1.314-0.962-1.398-0.037-2.713c0.886-1.259,1.807-2.5,2.794-3.681
		c0.868-1.04,1.525-1.146,2.69-0.422c2.029,1.262,3.636,3.05,5.464,4.564C393.994,15.413,394.059,15.694,394.18,15.92z"/>
	<path fill="#242A30" d="M401.643,18.466c-1.32-0.06-2.436-1.228-2.396-2.506c0.038-1.225,1.06-2.246,2.175-2.173
		c1.328,0.086,2.59,1.255,2.578,2.388C403.987,17.384,402.818,18.52,401.643,18.466z"/>
	<path fill="#242A30" d="M422.197,15.997c-0.138,0.271-0.24,0.504-0.369,0.72c-1.427,2.374-2.469,4.936-3.636,7.436
		c-0.244,0.521-0.479,1.064-0.825,1.518c-0.586,0.771-1.337,0.752-1.898-0.045c-0.328-0.467-0.547-1.014-0.792-1.537
		c-1.065-2.271-2.264-4.463-3.753-6.493c-0.965-1.314-0.962-1.399-0.037-2.713c0.886-1.259,1.807-2.5,2.794-3.681
		c0.868-1.04,1.525-1.146,2.69-0.422c2.029,1.262,3.636,3.05,5.465,4.564C422.012,15.489,422.077,15.771,422.197,15.997z"/>
	<path fill="#242A30" d="M429.66,18.542c-1.32-0.061-2.436-1.228-2.396-2.506c0.038-1.225,1.06-2.246,2.175-2.173
		c1.328,0.086,2.59,1.255,2.578,2.388C432.005,17.46,430.836,18.596,429.66,18.542z"/>
	<path fill="#242A30" d="M422.197,15.997c-0.138,0.271-0.24,0.504-0.369,0.72c-1.427,2.374-2.469,4.936-3.636,7.436
		c-0.244,0.521-0.479,1.064-0.825,1.518c-0.586,0.771-1.337,0.752-1.898-0.045c-0.328-0.467-0.547-1.014-0.792-1.537
		c-1.065-2.271-2.264-4.463-3.753-6.493c-0.965-1.314-0.962-1.399-0.037-2.713c0.886-1.259,1.807-2.5,2.794-3.681
		c0.868-1.04,1.525-1.146,2.69-0.422c2.029,1.262,3.636,3.05,5.465,4.564C422.012,15.489,422.077,15.771,422.197,15.997z"/>
	<path fill="#242A30" d="M429.66,18.542c-1.32-0.061-2.436-1.228-2.396-2.506c0.038-1.225,1.06-2.246,2.175-2.173
		c1.328,0.086,2.59,1.255,2.578,2.388C432.005,17.46,430.836,18.596,429.66,18.542z"/>
	<path fill="#242A30" d="M450.215,16.072c-0.138,0.271-0.24,0.504-0.369,0.72c-1.427,2.374-2.469,4.937-3.636,7.437
		c-0.244,0.521-0.479,1.064-0.825,1.518c-0.586,0.771-1.337,0.752-1.898-0.045c-0.328-0.467-0.547-1.014-0.792-1.537
		c-1.065-2.271-2.264-4.463-3.753-6.493c-0.965-1.315-0.962-1.399-0.037-2.713c0.886-1.26,1.807-2.5,2.794-3.681
		c0.868-1.04,1.525-1.146,2.69-0.422c2.029,1.262,3.636,3.05,5.465,4.564C450.029,15.565,450.095,15.847,450.215,16.072z"/>
	<path fill="#242A30" d="M457.678,18.618c-1.32-0.061-2.436-1.228-2.396-2.506c0.038-1.225,1.061-2.246,2.175-2.173
		c1.328,0.086,2.59,1.255,2.578,2.388C460.022,17.536,458.854,18.672,457.678,18.618z"/>
	<path fill="#242A30" d="M450.215,16.072c-0.138,0.271-0.24,0.504-0.369,0.72c-1.427,2.374-2.469,4.937-3.636,7.437
		c-0.244,0.521-0.479,1.064-0.825,1.518c-0.586,0.771-1.337,0.752-1.898-0.045c-0.328-0.467-0.547-1.014-0.792-1.537
		c-1.065-2.271-2.264-4.463-3.753-6.493c-0.965-1.315-0.962-1.399-0.037-2.713c0.886-1.26,1.807-2.5,2.794-3.681
		c0.868-1.04,1.525-1.146,2.69-0.422c2.029,1.262,3.636,3.05,5.465,4.564C450.029,15.565,450.095,15.847,450.215,16.072z"/>
	<path fill="#242A30" d="M457.678,18.618c-1.32-0.061-2.436-1.228-2.396-2.506c0.038-1.225,1.061-2.246,2.175-2.173
		c1.328,0.086,2.59,1.255,2.578,2.388C460.022,17.536,458.854,18.672,457.678,18.618z"/>
	<path fill="#242A30" d="M478.232,16.148c-0.138,0.271-0.24,0.504-0.369,0.72c-1.427,2.374-2.468,4.937-3.636,7.437
		c-0.244,0.521-0.479,1.064-0.825,1.518c-0.585,0.771-1.337,0.752-1.897-0.045c-0.329-0.467-0.548-1.014-0.793-1.537
		c-1.065-2.271-2.264-4.463-3.753-6.494c-0.965-1.314-0.961-1.398-0.037-2.713c0.886-1.259,1.807-2.5,2.794-3.681
		c0.868-1.04,1.525-1.147,2.69-0.422c2.029,1.262,3.636,3.05,5.465,4.564C478.047,15.641,478.112,15.922,478.232,16.148z"/>
	<path fill="#242A30" d="M485.695,18.694c-1.32-0.061-2.436-1.228-2.396-2.506c0.039-1.225,1.061-2.246,2.175-2.173
		c1.328,0.086,2.59,1.255,2.578,2.388C488.04,17.612,486.871,18.748,485.695,18.694z"/>
	<path fill="#242A30" d="M478.232,16.148c-0.138,0.271-0.24,0.504-0.369,0.72c-1.427,2.374-2.468,4.937-3.636,7.437
		c-0.244,0.521-0.479,1.064-0.825,1.518c-0.585,0.771-1.337,0.752-1.897-0.045c-0.329-0.467-0.548-1.014-0.793-1.537
		c-1.065-2.271-2.264-4.463-3.753-6.494c-0.965-1.314-0.961-1.398-0.037-2.713c0.886-1.259,1.807-2.5,2.794-3.681
		c0.868-1.04,1.525-1.147,2.69-0.422c2.029,1.262,3.636,3.05,5.465,4.564C478.047,15.641,478.112,15.922,478.232,16.148z"/>
	<path fill="#242A30" d="M485.695,18.694c-1.32-0.061-2.436-1.228-2.396-2.506c0.039-1.225,1.061-2.246,2.175-2.173
		c1.328,0.086,2.59,1.255,2.578,2.388C488.04,17.612,486.871,18.748,485.695,18.694z"/>
	<path fill="#242A30" d="M506.25,16.225c-0.138,0.271-0.24,0.504-0.369,0.72c-1.427,2.374-2.468,4.937-3.636,7.437
		c-0.243,0.521-0.479,1.064-0.825,1.518c-0.585,0.771-1.337,0.752-1.897-0.045c-0.329-0.467-0.548-1.014-0.793-1.537
		c-1.065-2.271-2.264-4.463-3.753-6.494c-0.965-1.314-0.961-1.398-0.037-2.713c0.887-1.26,1.807-2.5,2.794-3.681
		c0.869-1.04,1.525-1.147,2.69-0.422c2.029,1.262,3.637,3.05,5.465,4.563C506.064,15.717,506.13,15.999,506.25,16.225z"/>
	<path fill="#242A30" d="M513.713,18.771c-1.32-0.061-2.436-1.228-2.396-2.506c0.039-1.225,1.061-2.246,2.176-2.173
		c1.327,0.086,2.589,1.255,2.577,2.388C516.058,17.688,514.889,18.824,513.713,18.771z"/>
	<path fill="#242A30" d="M506.25,16.225c-0.138,0.271-0.24,0.504-0.369,0.72c-1.427,2.374-2.468,4.937-3.636,7.437
		c-0.243,0.521-0.479,1.064-0.825,1.518c-0.585,0.771-1.337,0.752-1.897-0.045c-0.329-0.467-0.548-1.014-0.793-1.537
		c-1.065-2.271-2.264-4.463-3.753-6.494c-0.965-1.314-0.961-1.398-0.037-2.713c0.887-1.26,1.807-2.5,2.794-3.681
		c0.869-1.04,1.525-1.147,2.69-0.422c2.029,1.262,3.637,3.05,5.465,4.563C506.064,15.717,506.13,15.999,506.25,16.225z"/>
	<path fill="#242A30" d="M513.713,18.771c-1.32-0.061-2.436-1.228-2.396-2.506c0.039-1.225,1.061-2.246,2.176-2.173
		c1.327,0.086,2.589,1.255,2.577,2.388C516.058,17.688,514.889,18.824,513.713,18.771z"/>
	<path fill="#242A30" d="M534.269,16.301c-0.139,0.271-0.24,0.504-0.37,0.72c-1.426,2.374-2.468,4.937-3.636,7.437
		c-0.243,0.521-0.479,1.064-0.824,1.518c-0.586,0.771-1.338,0.752-1.898-0.045c-0.329-0.467-0.548-1.014-0.792-1.537
		c-1.066-2.271-2.265-4.463-3.754-6.494c-0.965-1.314-0.961-1.398-0.037-2.713c0.887-1.26,1.807-2.5,2.795-3.681
		c0.868-1.04,1.525-1.147,2.69-0.422c2.028,1.262,3.636,3.05,5.464,4.563C534.082,15.793,534.147,16.075,534.269,16.301z"/>
</g>
<g>
	<path fill="#242A30" d="M534.268,15.844c-0.139,0.271-0.24,0.504-0.37,0.72c-1.426,2.374-2.468,4.936-3.636,7.436
		c-0.243,0.521-0.479,1.064-0.824,1.518c-0.586,0.771-1.338,0.752-1.898-0.045c-0.328-0.467-0.547-1.014-0.792-1.537
		c-1.066-2.271-2.265-4.463-3.753-6.493c-0.965-1.314-0.962-1.398-0.037-2.713c0.886-1.259,1.807-2.5,2.793-3.681
		c0.869-1.04,1.526-1.146,2.691-0.422c2.029,1.262,3.636,3.05,5.464,4.564C534.082,15.337,534.146,15.618,534.268,15.844z"/>
	<path fill="#242A30" d="M541.73,18.39c-1.32-0.06-2.436-1.228-2.396-2.506c0.039-1.226,1.061-2.246,2.176-2.174
		c1.328,0.086,2.59,1.255,2.578,2.388C544.074,17.308,542.906,18.443,541.73,18.39z"/>
	<path fill="#242A30" d="M562.285,15.92c-0.139,0.271-0.24,0.504-0.369,0.72c-1.427,2.374-2.469,4.936-3.637,7.436
		c-0.243,0.521-0.479,1.064-0.824,1.518c-0.586,0.771-1.338,0.752-1.898-0.045c-0.328-0.467-0.547-1.014-0.792-1.537
		c-1.065-2.271-2.264-4.463-3.753-6.493c-0.965-1.314-0.962-1.398-0.037-2.713c0.886-1.259,1.807-2.5,2.794-3.681
		c0.868-1.04,1.525-1.146,2.69-0.422c2.029,1.262,3.636,3.05,5.464,4.564C562.1,15.413,562.164,15.694,562.285,15.92z"/>
	<path fill="#242A30" d="M569.748,18.466c-1.32-0.06-2.436-1.228-2.396-2.506c0.038-1.225,1.06-2.246,2.175-2.173
		c1.328,0.086,2.59,1.255,2.578,2.388C572.093,17.384,570.924,18.52,569.748,18.466z"/>
	<path fill="#242A30" d="M562.285,15.92c-0.139,0.271-0.24,0.504-0.369,0.72c-1.427,2.374-2.469,4.936-3.637,7.436
		c-0.243,0.521-0.479,1.064-0.824,1.518c-0.586,0.771-1.338,0.752-1.898-0.045c-0.328-0.467-0.547-1.014-0.792-1.537
		c-1.065-2.271-2.264-4.463-3.753-6.493c-0.965-1.314-0.962-1.398-0.037-2.713c0.886-1.259,1.807-2.5,2.794-3.681
		c0.868-1.04,1.525-1.146,2.69-0.422c2.029,1.262,3.636,3.05,5.464,4.564C562.1,15.413,562.164,15.694,562.285,15.92z"/>
	<path fill="#242A30" d="M569.748,18.466c-1.32-0.06-2.436-1.228-2.396-2.506c0.038-1.225,1.06-2.246,2.175-2.173
		c1.328,0.086,2.59,1.255,2.578,2.388C572.093,17.384,570.924,18.52,569.748,18.466z"/>
	<path fill="#242A30" d="M590.303,15.997c-0.138,0.271-0.24,0.504-0.369,0.72c-1.427,2.374-2.469,4.936-3.636,7.436
		c-0.244,0.521-0.479,1.064-0.825,1.518c-0.586,0.771-1.337,0.752-1.898-0.045c-0.328-0.467-0.547-1.014-0.792-1.537
		c-1.065-2.271-2.264-4.463-3.753-6.493c-0.965-1.314-0.962-1.399-0.037-2.713c0.886-1.259,1.807-2.5,2.794-3.681
		c0.868-1.04,1.525-1.146,2.69-0.422c2.029,1.262,3.636,3.05,5.465,4.564C590.117,15.489,590.183,15.771,590.303,15.997z"/>
	<path fill="#242A30" d="M597.766,18.542c-1.32-0.061-2.436-1.228-2.396-2.506c0.038-1.225,1.06-2.246,2.175-2.173
		c1.328,0.086,2.59,1.255,2.578,2.388C600.11,17.46,598.941,18.596,597.766,18.542z"/>
	<path fill="#242A30" d="M590.303,15.997c-0.138,0.271-0.24,0.504-0.369,0.72c-1.427,2.374-2.469,4.936-3.636,7.436
		c-0.244,0.521-0.479,1.064-0.825,1.518c-0.586,0.771-1.337,0.752-1.898-0.045c-0.328-0.467-0.547-1.014-0.792-1.537
		c-1.065-2.271-2.264-4.463-3.753-6.493c-0.965-1.314-0.962-1.399-0.037-2.713c0.886-1.259,1.807-2.5,2.794-3.681
		c0.868-1.04,1.525-1.146,2.69-0.422c2.029,1.262,3.636,3.05,5.465,4.564C590.117,15.489,590.183,15.771,590.303,15.997z"/>
	<path fill="#242A30" d="M597.766,18.542c-1.32-0.061-2.436-1.228-2.396-2.506c0.038-1.225,1.06-2.246,2.175-2.173
		c1.328,0.086,2.59,1.255,2.578,2.388C600.11,17.46,598.941,18.596,597.766,18.542z"/>
	<path fill="#242A30" d="M618.32,16.072c-0.138,0.271-0.24,0.504-0.369,0.72c-1.427,2.374-2.469,4.937-3.636,7.437
		c-0.244,0.521-0.479,1.064-0.825,1.518c-0.586,0.771-1.337,0.752-1.898-0.045c-0.328-0.467-0.547-1.014-0.792-1.537
		c-1.065-2.271-2.264-4.463-3.753-6.493c-0.965-1.315-0.962-1.399-0.037-2.713c0.886-1.26,1.807-2.5,2.794-3.681
		c0.868-1.04,1.525-1.146,2.69-0.422c2.029,1.262,3.636,3.05,5.465,4.564C618.135,15.565,618.2,15.847,618.32,16.072z"/>
	<path fill="#242A30" d="M625.783,18.618c-1.32-0.061-2.436-1.228-2.396-2.506c0.038-1.225,1.061-2.246,2.175-2.173
		c1.328,0.086,2.59,1.255,2.578,2.388C628.128,17.536,626.959,18.672,625.783,18.618z"/>
	<path fill="#242A30" d="M618.32,16.072c-0.138,0.271-0.24,0.504-0.369,0.72c-1.427,2.374-2.469,4.937-3.636,7.437
		c-0.244,0.521-0.479,1.064-0.825,1.518c-0.586,0.771-1.337,0.752-1.898-0.045c-0.328-0.467-0.547-1.014-0.792-1.537
		c-1.065-2.271-2.264-4.463-3.753-6.493c-0.965-1.315-0.962-1.399-0.037-2.713c0.886-1.26,1.807-2.5,2.794-3.681
		c0.868-1.04,1.525-1.146,2.69-0.422c2.029,1.262,3.636,3.05,5.465,4.564C618.135,15.565,618.2,15.847,618.32,16.072z"/>
	<path fill="#242A30" d="M625.783,18.618c-1.32-0.061-2.436-1.228-2.396-2.506c0.038-1.225,1.061-2.246,2.175-2.173
		c1.328,0.086,2.59,1.255,2.578,2.388C628.128,17.536,626.959,18.672,625.783,18.618z"/>
	<path fill="#242A30" d="M646.338,16.148c-0.138,0.271-0.24,0.504-0.369,0.72c-1.427,2.374-2.468,4.937-3.636,7.437
		c-0.244,0.521-0.479,1.064-0.825,1.518c-0.585,0.771-1.337,0.752-1.897-0.045c-0.329-0.467-0.548-1.014-0.793-1.537
		c-1.065-2.271-2.264-4.463-3.753-6.494c-0.965-1.314-0.961-1.398-0.037-2.713c0.886-1.259,1.807-2.5,2.794-3.681
		c0.868-1.04,1.525-1.147,2.69-0.422c2.029,1.262,3.636,3.05,5.465,4.564C646.152,15.641,646.218,15.922,646.338,16.148z"/>
	<path fill="#242A30" d="M653.801,18.694c-1.32-0.061-2.436-1.228-2.396-2.506c0.039-1.225,1.061-2.246,2.175-2.173
		c1.328,0.086,2.59,1.255,2.578,2.388C656.146,17.612,654.977,18.748,653.801,18.694z"/>
	<path fill="#242A30" d="M646.338,16.148c-0.138,0.271-0.24,0.504-0.369,0.72c-1.427,2.374-2.468,4.937-3.636,7.437
		c-0.244,0.521-0.479,1.064-0.825,1.518c-0.585,0.771-1.337,0.752-1.897-0.045c-0.329-0.467-0.548-1.014-0.793-1.537
		c-1.065-2.271-2.264-4.463-3.753-6.494c-0.965-1.314-0.961-1.398-0.037-2.713c0.886-1.259,1.807-2.5,2.794-3.681
		c0.868-1.04,1.525-1.147,2.69-0.422c2.029,1.262,3.636,3.05,5.465,4.564C646.152,15.641,646.218,15.922,646.338,16.148z"/>
	<path fill="#242A30" d="M653.801,18.694c-1.32-0.061-2.436-1.228-2.396-2.506c0.039-1.225,1.061-2.246,2.175-2.173
		c1.328,0.086,2.59,1.255,2.578,2.388C656.146,17.612,654.977,18.748,653.801,18.694z"/>
	<path fill="#242A30" d="M674.355,16.225c-0.138,0.271-0.24,0.504-0.369,0.72c-1.427,2.374-2.468,4.937-3.636,7.437
		c-0.243,0.521-0.479,1.064-0.825,1.518c-0.585,0.771-1.337,0.752-1.897-0.045c-0.329-0.467-0.548-1.014-0.793-1.537
		c-1.065-2.271-2.264-4.463-3.753-6.494c-0.965-1.314-0.961-1.398-0.037-2.713c0.887-1.26,1.807-2.5,2.794-3.681
		c0.869-1.04,1.525-1.147,2.69-0.422c2.029,1.262,3.637,3.05,5.465,4.563C674.17,15.717,674.235,15.999,674.355,16.225z"/>
	<path fill="#242A30" d="M681.818,18.771c-1.32-0.061-2.436-1.228-2.396-2.506c0.039-1.225,1.061-2.246,2.176-2.173
		c1.327,0.086,2.589,1.255,2.577,2.388C684.163,17.688,682.994,18.824,681.818,18.771z"/>
	<path fill="#242A30" d="M674.355,16.225c-0.138,0.271-0.24,0.504-0.369,0.72c-1.427,2.374-2.468,4.937-3.636,7.437
		c-0.243,0.521-0.479,1.064-0.825,1.518c-0.585,0.771-1.337,0.752-1.897-0.045c-0.329-0.467-0.548-1.014-0.793-1.537
		c-1.065-2.271-2.264-4.463-3.753-6.494c-0.965-1.314-0.961-1.398-0.037-2.713c0.887-1.26,1.807-2.5,2.794-3.681
		c0.869-1.04,1.525-1.147,2.69-0.422c2.029,1.262,3.637,3.05,5.465,4.563C674.17,15.717,674.235,15.999,674.355,16.225z"/>
	<path fill="#242A30" d="M681.818,18.771c-1.32-0.061-2.436-1.228-2.396-2.506c0.039-1.225,1.061-2.246,2.176-2.173
		c1.327,0.086,2.589,1.255,2.577,2.388C684.163,17.688,682.994,18.824,681.818,18.771z"/>
	<path fill="#242A30" d="M702.374,16.301c-0.139,0.271-0.24,0.504-0.37,0.72c-1.426,2.374-2.468,4.937-3.636,7.437
		c-0.243,0.521-0.479,1.064-0.824,1.518c-0.586,0.771-1.338,0.752-1.898-0.045c-0.329-0.467-0.548-1.014-0.792-1.537
		c-1.066-2.271-2.265-4.463-3.754-6.494c-0.965-1.314-0.961-1.398-0.037-2.713c0.887-1.26,1.807-2.5,2.795-3.681
		c0.868-1.04,1.525-1.147,2.69-0.422c2.028,1.262,3.636,3.05,5.464,4.563C702.188,15.793,702.253,16.075,702.374,16.301z"/>
</g>
<g>
	<path fill="#242A30" d="M702.373,15.844c-0.139,0.271-0.24,0.504-0.37,0.72c-1.426,2.374-2.468,4.936-3.636,7.436
		c-0.243,0.521-0.479,1.064-0.824,1.518c-0.586,0.771-1.338,0.752-1.898-0.045c-0.328-0.467-0.547-1.014-0.792-1.537
		c-1.066-2.271-2.265-4.463-3.753-6.493c-0.965-1.314-0.962-1.398-0.037-2.713c0.886-1.259,1.807-2.5,2.793-3.681
		c0.869-1.04,1.526-1.146,2.691-0.422c2.029,1.262,3.636,3.05,5.464,4.564C702.188,15.337,702.252,15.618,702.373,15.844z"/>
	<path fill="#242A30" d="M709.836,18.39c-1.32-0.06-2.436-1.228-2.396-2.506c0.039-1.226,1.061-2.246,2.176-2.174
		c1.328,0.086,2.59,1.255,2.578,2.388C712.18,17.308,711.012,18.443,709.836,18.39z"/>
	<path fill="#242A30" d="M730.391,15.92c-0.139,0.271-0.24,0.504-0.369,0.72c-1.427,2.374-2.469,4.936-3.637,7.436
		c-0.243,0.521-0.479,1.064-0.824,1.518c-0.586,0.771-1.338,0.752-1.898-0.045c-0.328-0.467-0.547-1.014-0.792-1.537
		c-1.065-2.271-2.264-4.463-3.753-6.493c-0.965-1.314-0.962-1.398-0.037-2.713c0.886-1.259,1.807-2.5,2.794-3.681
		c0.868-1.04,1.525-1.146,2.69-0.422c2.029,1.262,3.636,3.05,5.464,4.564C730.205,15.413,730.27,15.694,730.391,15.92z"/>
	<path fill="#242A30" d="M737.854,18.466c-1.32-0.06-2.436-1.228-2.396-2.506c0.038-1.225,1.06-2.246,2.175-2.173
		c1.328,0.086,2.59,1.255,2.578,2.388C740.198,17.384,739.029,18.52,737.854,18.466z"/>
	<path fill="#242A30" d="M730.391,15.92c-0.139,0.271-0.24,0.504-0.369,0.72c-1.427,2.374-2.469,4.936-3.637,7.436
		c-0.243,0.521-0.479,1.064-0.824,1.518c-0.586,0.771-1.338,0.752-1.898-0.045c-0.328-0.467-0.547-1.014-0.792-1.537
		c-1.065-2.271-2.264-4.463-3.753-6.493c-0.965-1.314-0.962-1.398-0.037-2.713c0.886-1.259,1.807-2.5,2.794-3.681
		c0.868-1.04,1.525-1.146,2.69-0.422c2.029,1.262,3.636,3.05,5.464,4.564C730.205,15.413,730.27,15.694,730.391,15.92z"/>
	<path fill="#242A30" d="M737.854,18.466c-1.32-0.06-2.436-1.228-2.396-2.506c0.038-1.225,1.06-2.246,2.175-2.173
		c1.328,0.086,2.59,1.255,2.578,2.388C740.198,17.384,739.029,18.52,737.854,18.466z"/>
	<path fill="#242A30" d="M758.408,15.997c-0.138,0.271-0.24,0.504-0.369,0.72c-1.427,2.374-2.469,4.936-3.636,7.436
		c-0.244,0.521-0.479,1.064-0.825,1.518c-0.586,0.771-1.337,0.752-1.898-0.045c-0.328-0.467-0.547-1.014-0.792-1.537
		c-1.065-2.271-2.264-4.463-3.753-6.493c-0.965-1.314-0.962-1.399-0.037-2.713c0.886-1.259,1.807-2.5,2.794-3.681
		c0.868-1.04,1.525-1.146,2.69-0.422c2.029,1.262,3.636,3.05,5.465,4.564C758.223,15.489,758.288,15.771,758.408,15.997z"/>
	<path fill="#242A30" d="M765.871,18.542c-1.32-0.061-2.436-1.228-2.396-2.506c0.038-1.225,1.06-2.246,2.175-2.173
		c1.328,0.086,2.59,1.255,2.578,2.388C768.216,17.46,767.047,18.596,765.871,18.542z"/>
	<path fill="#242A30" d="M758.408,15.997c-0.138,0.271-0.24,0.504-0.369,0.72c-1.427,2.374-2.469,4.936-3.636,7.436
		c-0.244,0.521-0.479,1.064-0.825,1.518c-0.586,0.771-1.337,0.752-1.898-0.045c-0.328-0.467-0.547-1.014-0.792-1.537
		c-1.065-2.271-2.264-4.463-3.753-6.493c-0.965-1.314-0.962-1.399-0.037-2.713c0.886-1.259,1.807-2.5,2.794-3.681
		c0.868-1.04,1.525-1.146,2.69-0.422c2.029,1.262,3.636,3.05,5.465,4.564C758.223,15.489,758.288,15.771,758.408,15.997z"/>
	<path fill="#242A30" d="M765.871,18.542c-1.32-0.061-2.436-1.228-2.396-2.506c0.038-1.225,1.06-2.246,2.175-2.173
		c1.328,0.086,2.59,1.255,2.578,2.388C768.216,17.46,767.047,18.596,765.871,18.542z"/>
	<path fill="#242A30" d="M786.426,16.072c-0.138,0.271-0.24,0.504-0.369,0.72c-1.427,2.374-2.469,4.937-3.636,7.437
		c-0.244,0.521-0.479,1.064-0.825,1.518c-0.586,0.771-1.337,0.752-1.898-0.045c-0.328-0.467-0.547-1.014-0.792-1.537
		c-1.065-2.271-2.264-4.463-3.753-6.493c-0.965-1.315-0.962-1.399-0.037-2.713c0.886-1.26,1.807-2.5,2.794-3.681
		c0.868-1.04,1.525-1.146,2.69-0.422c2.029,1.262,3.636,3.05,5.465,4.564C786.24,15.565,786.306,15.847,786.426,16.072z"/>
	<path fill="#242A30" d="M793.889,18.618c-1.32-0.061-2.436-1.228-2.396-2.506c0.038-1.225,1.061-2.246,2.175-2.173
		c1.328,0.086,2.59,1.255,2.578,2.388C796.233,17.536,795.064,18.672,793.889,18.618z"/>
	<path fill="#242A30" d="M786.426,16.072c-0.138,0.271-0.24,0.504-0.369,0.72c-1.427,2.374-2.469,4.937-3.636,7.437
		c-0.244,0.521-0.479,1.064-0.825,1.518c-0.586,0.771-1.337,0.752-1.898-0.045c-0.328-0.467-0.547-1.014-0.792-1.537
		c-1.065-2.271-2.264-4.463-3.753-6.493c-0.965-1.315-0.962-1.399-0.037-2.713c0.886-1.26,1.807-2.5,2.794-3.681
		c0.868-1.04,1.525-1.146,2.69-0.422c2.029,1.262,3.636,3.05,5.465,4.564C786.24,15.565,786.306,15.847,786.426,16.072z"/>
	<path fill="#242A30" d="M793.889,18.618c-1.32-0.061-2.436-1.228-2.396-2.506c0.038-1.225,1.061-2.246,2.175-2.173
		c1.328,0.086,2.59,1.255,2.578,2.388C796.233,17.536,795.064,18.672,793.889,18.618z"/>
	<path fill="#242A30" d="M814.443,16.148c-0.138,0.271-0.24,0.504-0.369,0.72c-1.427,2.374-2.468,4.937-3.636,7.437
		c-0.244,0.521-0.479,1.064-0.825,1.518c-0.585,0.771-1.337,0.752-1.897-0.045c-0.329-0.467-0.548-1.014-0.793-1.537
		c-1.065-2.271-2.264-4.463-3.753-6.494c-0.965-1.314-0.961-1.398-0.037-2.713c0.886-1.259,1.807-2.5,2.794-3.681
		c0.868-1.04,1.525-1.147,2.69-0.422c2.029,1.262,3.636,3.05,5.465,4.564C814.258,15.641,814.323,15.922,814.443,16.148z"/>
	<path fill="#242A30" d="M821.906,18.694c-1.32-0.061-2.436-1.228-2.396-2.506c0.039-1.225,1.061-2.246,2.175-2.173
		c1.328,0.086,2.59,1.255,2.578,2.388C824.251,17.612,823.082,18.748,821.906,18.694z"/>
	<path fill="#242A30" d="M814.443,16.148c-0.138,0.271-0.24,0.504-0.369,0.72c-1.427,2.374-2.468,4.937-3.636,7.437
		c-0.244,0.521-0.479,1.064-0.825,1.518c-0.585,0.771-1.337,0.752-1.897-0.045c-0.329-0.467-0.548-1.014-0.793-1.537
		c-1.065-2.271-2.264-4.463-3.753-6.494c-0.965-1.314-0.961-1.398-0.037-2.713c0.886-1.259,1.807-2.5,2.794-3.681
		c0.868-1.04,1.525-1.147,2.69-0.422c2.029,1.262,3.636,3.05,5.465,4.564C814.258,15.641,814.323,15.922,814.443,16.148z"/>
	<path fill="#242A30" d="M821.906,18.694c-1.32-0.061-2.436-1.228-2.396-2.506c0.039-1.225,1.061-2.246,2.175-2.173
		c1.328,0.086,2.59,1.255,2.578,2.388C824.251,17.612,823.082,18.748,821.906,18.694z"/>
	<path fill="#242A30" d="M842.461,16.225c-0.138,0.271-0.24,0.504-0.369,0.72c-1.427,2.374-2.468,4.937-3.636,7.437
		c-0.243,0.521-0.479,1.064-0.825,1.518c-0.585,0.771-1.337,0.752-1.897-0.045c-0.329-0.467-0.548-1.014-0.793-1.537
		c-1.065-2.271-2.264-4.463-3.753-6.494c-0.965-1.314-0.961-1.398-0.037-2.713c0.887-1.26,1.807-2.5,2.794-3.681
		c0.869-1.04,1.525-1.147,2.69-0.422c2.029,1.262,3.637,3.05,5.465,4.563C842.275,15.717,842.341,15.999,842.461,16.225z"/>
	<path fill="#242A30" d="M849.924,18.771c-1.32-0.061-2.436-1.228-2.396-2.506c0.039-1.225,1.061-2.246,2.176-2.173
		c1.327,0.086,2.589,1.255,2.577,2.388C852.269,17.688,851.1,18.824,849.924,18.771z"/>
	<path fill="#242A30" d="M842.461,16.225c-0.138,0.271-0.24,0.504-0.369,0.72c-1.427,2.374-2.468,4.937-3.636,7.437
		c-0.243,0.521-0.479,1.064-0.825,1.518c-0.585,0.771-1.337,0.752-1.897-0.045c-0.329-0.467-0.548-1.014-0.793-1.537
		c-1.065-2.271-2.264-4.463-3.753-6.494c-0.965-1.314-0.961-1.398-0.037-2.713c0.887-1.26,1.807-2.5,2.794-3.681
		c0.869-1.04,1.525-1.147,2.69-0.422c2.029,1.262,3.637,3.05,5.465,4.563C842.275,15.717,842.341,15.999,842.461,16.225z"/>
	<path fill="#242A30" d="M849.924,18.771c-1.32-0.061-2.436-1.228-2.396-2.506c0.039-1.225,1.061-2.246,2.176-2.173
		c1.327,0.086,2.589,1.255,2.577,2.388C852.269,17.688,851.1,18.824,849.924,18.771z"/>
	<path fill="#242A30" d="M870.479,16.301c-0.139,0.271-0.24,0.504-0.37,0.72c-1.426,2.374-2.468,4.937-3.636,7.437
		c-0.243,0.521-0.479,1.064-0.824,1.518c-0.586,0.771-1.338,0.752-1.898-0.045c-0.329-0.467-0.548-1.014-0.792-1.537
		c-1.066-2.271-2.265-4.463-3.754-6.494c-0.965-1.314-0.961-1.398-0.037-2.713c0.887-1.26,1.807-2.5,2.795-3.681
		c0.868-1.04,1.525-1.147,2.69-0.422c2.028,1.262,3.636,3.05,5.464,4.563C870.293,15.793,870.358,16.075,870.479,16.301z"/>
</g>
<g>
	<path fill="#242A30" d="M870.479,15.844c-0.139,0.271-0.24,0.504-0.37,0.72c-1.426,2.374-2.468,4.936-3.636,7.436
		c-0.243,0.521-0.479,1.064-0.824,1.518c-0.586,0.771-1.338,0.752-1.898-0.045c-0.328-0.467-0.547-1.014-0.792-1.537
		c-1.066-2.271-2.265-4.463-3.753-6.493c-0.965-1.314-0.962-1.398-0.037-2.713c0.886-1.259,1.807-2.5,2.793-3.681
		c0.869-1.04,1.526-1.146,2.691-0.422c2.029,1.262,3.636,3.05,5.464,4.564C870.293,15.337,870.357,15.618,870.479,15.844z"/>
	<path fill="#242A30" d="M877.941,18.39c-1.32-0.06-2.436-1.228-2.396-2.506c0.039-1.226,1.061-2.246,2.176-2.174
		c1.328,0.086,2.59,1.255,2.578,2.388C880.285,17.308,879.117,18.443,877.941,18.39z"/>
	<path fill="#242A30" d="M898.496,15.92c-0.139,0.271-0.24,0.504-0.369,0.72c-1.427,2.374-2.469,4.936-3.637,7.436
		c-0.243,0.521-0.479,1.064-0.824,1.518c-0.586,0.771-1.338,0.752-1.898-0.045c-0.328-0.467-0.547-1.014-0.792-1.537
		c-1.065-2.271-2.264-4.463-3.753-6.493c-0.965-1.314-0.962-1.398-0.037-2.713c0.886-1.259,1.807-2.5,2.794-3.681
		c0.868-1.04,1.525-1.146,2.69-0.422c2.029,1.262,3.636,3.05,5.464,4.564C898.311,15.413,898.375,15.694,898.496,15.92z"/>
	<path fill="#242A30" d="M905.959,18.466c-1.32-0.06-2.436-1.228-2.396-2.506c0.038-1.225,1.06-2.246,2.175-2.173
		c1.328,0.086,2.59,1.255,2.578,2.388C908.304,17.384,907.135,18.52,905.959,18.466z"/>
	<path fill="#242A30" d="M898.496,15.92c-0.139,0.271-0.24,0.504-0.369,0.72c-1.427,2.374-2.469,4.936-3.637,7.436
		c-0.243,0.521-0.479,1.064-0.824,1.518c-0.586,0.771-1.338,0.752-1.898-0.045c-0.328-0.467-0.547-1.014-0.792-1.537
		c-1.065-2.271-2.264-4.463-3.753-6.493c-0.965-1.314-0.962-1.398-0.037-2.713c0.886-1.259,1.807-2.5,2.794-3.681
		c0.868-1.04,1.525-1.146,2.69-0.422c2.029,1.262,3.636,3.05,5.464,4.564C898.311,15.413,898.375,15.694,898.496,15.92z"/>
	<path fill="#242A30" d="M905.959,18.466c-1.32-0.06-2.436-1.228-2.396-2.506c0.038-1.225,1.06-2.246,2.175-2.173
		c1.328,0.086,2.59,1.255,2.578,2.388C908.304,17.384,907.135,18.52,905.959,18.466z"/>
	<path fill="#242A30" d="M926.514,15.997c-0.138,0.271-0.24,0.504-0.369,0.72c-1.427,2.374-2.469,4.936-3.636,7.436
		c-0.244,0.521-0.479,1.064-0.825,1.518c-0.586,0.771-1.337,0.752-1.898-0.045c-0.328-0.467-0.547-1.014-0.792-1.537
		c-1.065-2.271-2.264-4.463-3.753-6.493c-0.965-1.314-0.962-1.399-0.037-2.713c0.886-1.259,1.807-2.5,2.794-3.681
		c0.868-1.04,1.525-1.146,2.69-0.422c2.029,1.262,3.636,3.05,5.465,4.564C926.328,15.489,926.394,15.771,926.514,15.997z"/>
	<path fill="#242A30" d="M933.977,18.542c-1.32-0.061-2.436-1.228-2.396-2.506c0.038-1.225,1.06-2.246,2.175-2.173
		c1.328,0.086,2.59,1.255,2.578,2.388C936.321,17.46,935.152,18.596,933.977,18.542z"/>
	<path fill="#242A30" d="M926.514,15.997c-0.138,0.271-0.24,0.504-0.369,0.72c-1.427,2.374-2.469,4.936-3.636,7.436
		c-0.244,0.521-0.479,1.064-0.825,1.518c-0.586,0.771-1.337,0.752-1.898-0.045c-0.328-0.467-0.547-1.014-0.792-1.537
		c-1.065-2.271-2.264-4.463-3.753-6.493c-0.965-1.314-0.962-1.399-0.037-2.713c0.886-1.259,1.807-2.5,2.794-3.681
		c0.868-1.04,1.525-1.146,2.69-0.422c2.029,1.262,3.636,3.05,5.465,4.564C926.328,15.489,926.394,15.771,926.514,15.997z"/>
	<path fill="#242A30" d="M933.977,18.542c-1.32-0.061-2.436-1.228-2.396-2.506c0.038-1.225,1.06-2.246,2.175-2.173
		c1.328,0.086,2.59,1.255,2.578,2.388C936.321,17.46,935.152,18.596,933.977,18.542z"/>
	<path fill="#242A30" d="M954.531,16.072c-0.138,0.271-0.24,0.504-0.369,0.72c-1.427,2.374-2.469,4.937-3.636,7.437
		c-0.244,0.521-0.479,1.064-0.825,1.518c-0.586,0.771-1.337,0.752-1.898-0.045c-0.328-0.467-0.547-1.014-0.792-1.537
		c-1.065-2.271-2.264-4.463-3.753-6.493c-0.965-1.315-0.962-1.399-0.037-2.713c0.886-1.26,1.807-2.5,2.794-3.681
		c0.868-1.04,1.525-1.146,2.69-0.422c2.029,1.262,3.636,3.05,5.465,4.564C954.346,15.565,954.411,15.847,954.531,16.072z"/>
	<path fill="#242A30" d="M961.994,18.618c-1.32-0.061-2.436-1.228-2.396-2.506c0.038-1.225,1.061-2.246,2.175-2.173
		c1.328,0.086,2.59,1.255,2.578,2.388C964.339,17.536,963.17,18.672,961.994,18.618z"/>
	<path fill="#242A30" d="M954.531,16.072c-0.138,0.271-0.24,0.504-0.369,0.72c-1.427,2.374-2.469,4.937-3.636,7.437
		c-0.244,0.521-0.479,1.064-0.825,1.518c-0.586,0.771-1.337,0.752-1.898-0.045c-0.328-0.467-0.547-1.014-0.792-1.537
		c-1.065-2.271-2.264-4.463-3.753-6.493c-0.965-1.315-0.962-1.399-0.037-2.713c0.886-1.26,1.807-2.5,2.794-3.681
		c0.868-1.04,1.525-1.146,2.69-0.422c2.029,1.262,3.636,3.05,5.465,4.564C954.346,15.565,954.411,15.847,954.531,16.072z"/>
	<path fill="#242A30" d="M961.994,18.618c-1.32-0.061-2.436-1.228-2.396-2.506c0.038-1.225,1.061-2.246,2.175-2.173
		c1.328,0.086,2.59,1.255,2.578,2.388C964.339,17.536,963.17,18.672,961.994,18.618z"/>
	<path fill="#242A30" d="M982.549,16.148c-0.138,0.271-0.24,0.504-0.369,0.72c-1.427,2.374-2.468,4.937-3.636,7.437
		c-0.244,0.521-0.479,1.064-0.825,1.518c-0.585,0.771-1.337,0.752-1.897-0.045c-0.329-0.467-0.548-1.014-0.793-1.537
		c-1.065-2.271-2.264-4.463-3.753-6.494c-0.965-1.314-0.961-1.398-0.037-2.713c0.886-1.259,1.807-2.5,2.794-3.681
		c0.868-1.04,1.525-1.147,2.69-0.422c2.029,1.262,3.636,3.05,5.465,4.564C982.363,15.641,982.429,15.922,982.549,16.148z"/>
	<path fill="#242A30" d="M990.012,18.694c-1.32-0.061-2.436-1.228-2.396-2.506c0.039-1.225,1.061-2.246,2.175-2.173
		c1.328,0.086,2.59,1.255,2.578,2.388C992.356,17.612,991.188,18.748,990.012,18.694z"/>
	<path fill="#242A30" d="M982.549,16.148c-0.138,0.271-0.24,0.504-0.369,0.72c-1.427,2.374-2.468,4.937-3.636,7.437
		c-0.244,0.521-0.479,1.064-0.825,1.518c-0.585,0.771-1.337,0.752-1.897-0.045c-0.329-0.467-0.548-1.014-0.793-1.537
		c-1.065-2.271-2.264-4.463-3.753-6.494c-0.965-1.314-0.961-1.398-0.037-2.713c0.886-1.259,1.807-2.5,2.794-3.681
		c0.868-1.04,1.525-1.147,2.69-0.422c2.029,1.262,3.636,3.05,5.465,4.564C982.363,15.641,982.429,15.922,982.549,16.148z"/>
	<path fill="#242A30" d="M990.012,18.694c-1.32-0.061-2.436-1.228-2.396-2.506c0.039-1.225,1.061-2.246,2.175-2.173
		c1.328,0.086,2.59,1.255,2.578,2.388C992.356,17.612,991.188,18.748,990.012,18.694z"/>
	<path fill="#242A30" d="M1010.566,16.225c-0.138,0.271-0.24,0.504-0.369,0.72c-1.427,2.374-2.468,4.937-3.636,7.437
		c-0.243,0.521-0.479,1.064-0.825,1.518c-0.585,0.771-1.337,0.752-1.897-0.045c-0.329-0.467-0.548-1.014-0.793-1.537
		c-1.065-2.271-2.264-4.463-3.753-6.494c-0.965-1.314-0.961-1.398-0.037-2.713c0.887-1.26,1.807-2.5,2.794-3.681
		c0.869-1.04,1.525-1.147,2.69-0.422c2.029,1.262,3.637,3.05,5.465,4.563C1010.381,15.717,1010.446,15.999,1010.566,16.225z"/>
	<path fill="#242A30" d="M1018.029,18.771c-1.32-0.061-2.436-1.228-2.396-2.506c0.039-1.225,1.061-2.246,2.176-2.173
		c1.327,0.086,2.589,1.255,2.577,2.388C1020.374,17.688,1019.205,18.824,1018.029,18.771z"/>
	<path fill="#242A30" d="M1010.566,16.225c-0.138,0.271-0.24,0.504-0.369,0.72c-1.427,2.374-2.468,4.937-3.636,7.437
		c-0.243,0.521-0.479,1.064-0.825,1.518c-0.585,0.771-1.337,0.752-1.897-0.045c-0.329-0.467-0.548-1.014-0.793-1.537
		c-1.065-2.271-2.264-4.463-3.753-6.494c-0.965-1.314-0.961-1.398-0.037-2.713c0.887-1.26,1.807-2.5,2.794-3.681
		c0.869-1.04,1.525-1.147,2.69-0.422c2.029,1.262,3.637,3.05,5.465,4.563C1010.381,15.717,1010.446,15.999,1010.566,16.225z"/>
	<path fill="#242A30" d="M1018.029,18.771c-1.32-0.061-2.436-1.228-2.396-2.506c0.039-1.225,1.061-2.246,2.176-2.173
		c1.327,0.086,2.589,1.255,2.577,2.388C1020.374,17.688,1019.205,18.824,1018.029,18.771z"/>
	<path fill="#242A30" d="M1038.585,16.301c-0.139,0.271-0.24,0.504-0.37,0.72c-1.426,2.374-2.468,4.937-3.636,7.437
		c-0.243,0.521-0.479,1.064-0.824,1.518c-0.586,0.771-1.338,0.752-1.898-0.045c-0.329-0.467-0.548-1.014-0.792-1.537
		c-1.066-2.271-2.265-4.463-3.754-6.494c-0.965-1.314-0.961-1.398-0.037-2.713c0.887-1.26,1.807-2.5,2.795-3.681
		c0.868-1.04,1.525-1.147,2.69-0.422c2.028,1.262,3.636,3.05,5.464,4.563C1038.398,15.793,1038.464,16.075,1038.585,16.301z"/>
</g>
</svg>
